<svg id="ModelSketch_Visible" xmlns="http://www.w3.org/2000/svg" xmlns:xlink="http://www.w3.org/1999/xlink" viewBox="0 0 1700.98 1700.98"><defs><style>.cls-1{fill:#f08000;}.cls-2{fill:#84af8b;}.cls-3{fill:#eca200;}.cls-4{fill:#6aa36f;}.cls-5{fill:#e7c500;}.cls-6{fill:#4d965e;}.cls-7{fill:#e4e300;}.cls-8{fill:#e8867c;}.cls-9{fill:#bede00;}.cls-10{fill:#ea644e;}.cls-11{fill:#3c9956;}.cls-12{fill:#7ad300;}.cls-13{fill:#276f41;}.cls-14{fill:#ee5230;}.cls-15{fill:url(#linear-gradient);}.cls-16{fill:#75897b;}.cls-17{fill:#30824b;}.cls-18{fill:#527c60;}.cls-19{fill:#32669d;}.cls-20{fill:#916788;}.cls-21{fill:#49b842;}.cls-22{fill:#d36ace;}.cls-23{fill:#43cb00;}.cls-24{fill:#fff;}.cls-25{fill:#b23f9a;}.cls-26{fill:#97337e;}.cls-27{fill:#c961c0;}.cls-28{fill:#2dc018;}.cls-29{fill:#2fa9a7;}.cls-30{fill:#bf51af;}.cls-31{fill:#33b543;}.cls-32{fill:#31b181;}.cls-33{fill:#b748a2;}.cls-34{fill:#933e81;}.cls-35{fill:#33aa96;}.cls-36{fill:#a572a2;}.cls-37{fill:#a0679a;}.cls-38{fill:#338fa7;}.cls-39{fill:#9b5992;}.cls-40{fill:#3479a2;}.cls-41{fill:#934c86;}.cls-42{font-size:39.69px;}.cls-42,.cls-43,.cls-44,.cls-45,.cls-46,.cls-47{fill:#2b3030;}.cls-42,.cls-43,.cls-44,.cls-45,.cls-46{font-family:MyriadPro-Regular, Myriad Pro;}.cls-43{font-size:34.02px;}.cls-44{font-size:36.85px;}.cls-45{font-size:31.18px;}.cls-46{font-size:48.19px;}.cls-47{font-size:42.52px;font-family:MyriadPro-BoldIt, Myriad Pro;font-weight:700;font-style:italic;}</style><linearGradient id="linear-gradient" x1="1099.98" y1="691.53" x2="1735.02" y2="691.53" gradientUnits="userSpaceOnUse"><stop offset="0" stop-color="#3479a2"/><stop offset="0.12" stop-color="#2fa9a7"/><stop offset="0.5" stop-color="#49b842"/><stop offset="0.61" stop-color="#49b842"/><stop offset="0.64" stop-color="#60ba38"/><stop offset="0.73" stop-color="#90be24"/><stop offset="0.81" stop-color="#b6c115"/><stop offset="0.88" stop-color="#d1c309"/><stop offset="0.95" stop-color="#e1c502"/><stop offset="1" stop-color="#e7c500"/></linearGradient></defs><title>ChallengeInfographic3</title><g id="Layer_3" data-name="Layer 3"><g id="LINE"><path class="cls-1" d="M2268,850.29H1735a318.51,318.51,0,0,0-6.88-66l66.49-14.13,454.77-96.67.17,0A853.81,853.81,0,0,1,2268,850.29Z" transform="translate(-567.01 0.2)"/><path class="cls-2" d="M1803.06,850.29H2268a853.81,853.81,0,0,1-18.42,176.87l-.17,0-454.7-96.65A386.43,386.43,0,0,0,1803.06,850.29Z" transform="translate(-567.01 0.2)"/><path class="cls-3" d="M2249.57,673.42l-.17,0-454.77,96.67-66.49,14.13a313.64,313.64,0,0,0-20.51-63.15l62.09-27.64,424.74-189.11.19-.08A843.75,843.75,0,0,1,2249.57,673.42Z" transform="translate(-567.01 0.2)"/><path class="cls-4" d="M2249.4,1027.12l.17,0a843.75,843.75,0,0,1-54.92,169.14l-.19-.08L1769.8,1007.15a381,381,0,0,0,24.9-76.68Z" transform="translate(-567.01 0.2)"/><path class="cls-5" d="M2194.65,504.28l-.19.08L1769.72,693.47l-62.09,27.64a316.86,316.86,0,0,0-33.23-57.46l55-40,376.14-273.29.05,0A849.54,849.54,0,0,1,2194.65,504.28Z" transform="translate(-567.01 0.2)"/><path class="cls-6" d="M2194.46,1196.22l.19.08a849.54,849.54,0,0,1-89,153.93l-.05,0-376.12-273.27a382.77,382.77,0,0,0,22-33.83,378.35,378.35,0,0,0,18.35-35.95Z" transform="translate(-567.01 0.2)"/><path class="cls-7" d="M2105.61,350.35l-.05,0L1729.42,623.67l-55,40A318.73,318.73,0,0,0,1630,614.33l45.53-50.56,311.1-345.52A855.2,855.2,0,0,1,2105.61,350.35Z" transform="translate(-567.01 0.2)"/><path class="cls-8" d="M2105.56,1350.2l.05,0a855.2,855.2,0,0,1-119,132.1l-311.1-345.52a386.4,386.4,0,0,0,54-59.88Z" transform="translate(-567.01 0.2)"/><path class="cls-9" d="M1986.59,218.25l-311.1,345.52L1630,614.33a317.58,317.58,0,0,0-53.68-39.06l34-58.88,232.47-402.65.07-.12A853.89,853.89,0,0,1,1986.59,218.25Z" transform="translate(-567.01 0.2)"/><path class="cls-10" d="M1675.49,1136.81l311.1,345.52A853.89,853.89,0,0,1,1842.82,1587l-.07-.12-232.44-402.6A386.31,386.31,0,0,0,1675.49,1136.81Z" transform="translate(-567.01 0.2)"/><path class="cls-11" d="M1842.75,1586.84l.07.12a846,846,0,0,1-162.43,72.41l-.07-.22-143.65-442.07a383,383,0,0,0,73.64-32.84Z" transform="translate(-567.01 0.2)"/><path class="cls-12" d="M1842.82,113.62l-.07.12L1610.28,516.39l-34,58.88a315.37,315.37,0,0,0-60.63-27l21-64.63L1680.32,41.43l.07-.22A846,846,0,0,1,1842.82,113.62Z" transform="translate(-567.01 0.2)"/><path class="cls-13" d="M1769.8,1007.15a378.35,378.35,0,0,1-18.35,35.95l0,0-58.88-34A316,316,0,0,0,1735,850.29h68a386.43,386.43,0,0,1-8.36,80.18A381,381,0,0,1,1769.8,1007.15Z" transform="translate(-567.01 0.2)"/><path class="cls-14" d="M1729.44,1076.93a387.51,387.51,0,0,1-119.13,107.31l0,0-34-58.88a318.85,318.85,0,0,0,116.24-116.24l58.88,34,0,0A382.77,382.77,0,0,1,1729.44,1076.93Z" transform="translate(-567.01 0.2)"/><path class="cls-15" d="M1106.86,784.26a313.64,313.64,0,0,1,20.51-63.15,318.13,318.13,0,0,1,192-172.88h0a315.2,315.2,0,0,1,65-13.74,321.09,321.09,0,0,1,66.38,0,315.2,315.2,0,0,1,65,13.74h0A317.42,317.42,0,0,1,1630,614.33a318.08,318.08,0,0,1,77.67,106.78,313.64,313.64,0,0,1,20.51,63.15,318.51,318.51,0,0,1,6.88,66h-68a249.48,249.48,0,1,0-499,0h-68A318.51,318.51,0,0,1,1106.86,784.26Z" transform="translate(-567.01 0.2)"/><path class="cls-16" d="M1692.52,1009.07a318.51,318.51,0,0,1-50.5,65.74l-48.11-48.11A248.7,248.7,0,0,0,1667,850.29h68A316,316,0,0,1,1692.52,1009.07Z" transform="translate(-567.01 0.2)"/><path class="cls-12" d="M1680.39,41.21l-.07.22L1536.64,483.6l-21,64.63h0a315.2,315.2,0,0,0-65-13.74l7.11-67.64L1506.4,4.46V4.39A846.27,846.27,0,0,1,1680.39,41.21Z" transform="translate(-567.01 0.2)"/><path class="cls-17" d="M1680.32,1659.15l.07.22a846.27,846.27,0,0,1-174,36.82v-.07l-48.6-462.35a383.54,383.54,0,0,0,78.87-16.69Z" transform="translate(-567.01 0.2)"/><path class="cls-5" d="M1667,850.29h-68a181.33,181.33,0,0,0-90.71-157.15l34-58.9,0,0A249.38,249.38,0,0,1,1667,850.29Z" transform="translate(-567.01 0.2)"/><path class="cls-13" d="M1598.94,850.29h68a249.48,249.48,0,0,1-249.48,249.48v-68A181.44,181.44,0,0,0,1598.94,850.29Z" transform="translate(-567.01 0.2)"/><path class="cls-18" d="M1576.28,1125.31a316,316,0,0,1-158.78,42.5v-68a248.7,248.7,0,0,0,176.41-73.07l48.11,48.11A318.51,318.51,0,0,1,1576.28,1125.31Z" transform="translate(-567.01 0.2)"/><path class="cls-13" d="M1536.67,1217.08a383.54,383.54,0,0,1-78.87,16.69,391.53,391.53,0,0,1-40.3,2.08v-68a316,316,0,0,0,158.78-42.5l34,58.88,0,0A383,383,0,0,1,1536.67,1217.08Z" transform="translate(-567.01 0.2)"/><path class="cls-19" d="M1508.23,693.14a181.33,181.33,0,0,1,90.71,157.15h-68a113.4,113.4,0,0,0-226.8,0h-68a181.47,181.47,0,0,1,272.17-157.15Z" transform="translate(-567.01 0.2)"/><path class="cls-20" d="M1530.9,850.29h68a181.44,181.44,0,0,1-362.88,0h68a113.4,113.4,0,0,0,226.8,0Z" transform="translate(-567.01 0.2)"/><path class="cls-21" d="M1542.26,634.2l0,0-34,58.9a181.6,181.6,0,0,0-181.46,0l-34-58.9,0,0a249.77,249.77,0,0,1,249.52,0Z" transform="translate(-567.01 0.2)"/><path class="cls-22" d="M1506.4,1696.12v.07a863.4,863.4,0,0,1-177.82,0v-.07l48.6-462.39,7.11-67.64a319.25,319.25,0,0,0,33.19,1.72v68a391.53,391.53,0,0,0,40.3-2.08Z" transform="translate(-567.01 0.2)"/><path class="cls-23" d="M1506.41,4.39v.07l-48.6,462.39-7.11,67.64a321.09,321.09,0,0,0-66.38,0l-7.11-67.64L1328.6,4.46V4.39a863.4,863.4,0,0,1,177.82,0Z" transform="translate(-567.01 0.2)"/><circle class="cls-24" cx="850.49" cy="850.49" r="113.4"/><path class="cls-25" d="M1384.31,1166.09a315.2,315.2,0,0,1-65-13.74h0a317.42,317.42,0,0,1-114.31-66.1q-6.18-5.57-12.06-11.44l48.11-48.11a248.7,248.7,0,0,0,176.41,73.07v68A319.25,319.25,0,0,1,1384.31,1166.09Z" transform="translate(-567.01 0.2)"/><path class="cls-26" d="M1417.5,1031.73v68A249.48,249.48,0,0,1,1168,850.29h68A181.44,181.44,0,0,0,1417.5,1031.73Z" transform="translate(-567.01 0.2)"/><path class="cls-27" d="M1384.31,1166.09l-7.11,67.64-48.6,462.39v.07a846.27,846.27,0,0,1-174-36.82l.07-.22L1298.36,1217l21-64.63h0A315.2,315.2,0,0,0,1384.31,1166.09Z" transform="translate(-567.01 0.2)"/><path class="cls-28" d="M1377.2,466.85l7.11,67.64a315.2,315.2,0,0,0-65,13.74h0l-21-64.63L1154.68,41.43l-.07-.22a846.27,846.27,0,0,1,174-36.82v.07Z" transform="translate(-567.01 0.2)"/><path class="cls-29" d="M1292.76,634.24l34,58.9a181.33,181.33,0,0,0-90.71,157.15h-68A249.38,249.38,0,0,1,1292.74,634.2Z" transform="translate(-567.01 0.2)"/><path class="cls-30" d="M1319.35,1152.35l-21,64.63-143.68,442.17-.07.22A846,846,0,0,1,992.18,1587l.07-.12,232.47-402.65,34-58.88A315.37,315.37,0,0,0,1319.35,1152.35Z" transform="translate(-567.01 0.2)"/><path class="cls-31" d="M1298.36,483.6l21,64.63a315.37,315.37,0,0,0-60.63,27l-34-58.88L992.25,113.74l-.07-.12a846,846,0,0,1,162.43-72.41l.07.22Z" transform="translate(-567.01 0.2)"/><path class="cls-32" d="M1224.72,516.39l34,58.88A317.58,317.58,0,0,0,1205,614.33l-45.53-50.56L848.41,218.25A853.89,853.89,0,0,1,992.18,113.62l.07.12Z" transform="translate(-567.01 0.2)"/><path class="cls-33" d="M1258.72,1125.31l-34,58.88L992.25,1586.84l-.07.12a853.89,853.89,0,0,1-143.77-104.63l311.1-345.52,45.53-50.56A317.58,317.58,0,0,0,1258.72,1125.31Z" transform="translate(-567.01 0.2)"/><path class="cls-34" d="M1127.37,979.47a313.64,313.64,0,0,1-20.51-63.15,318.51,318.51,0,0,1-6.88-66h68a248.7,248.7,0,0,0,73.07,176.41L1193,1074.81a318.06,318.06,0,0,1-65.61-95.34Z" transform="translate(-567.01 0.2)"/><path class="cls-35" d="M1159.51,563.77,1205,614.33a318.73,318.73,0,0,0-44.44,49.32l-55-40L729.44,350.38l-.05,0a855.2,855.2,0,0,1,119-132.1Z" transform="translate(-567.01 0.2)"/><path class="cls-36" d="M1205,1086.25l-45.53,50.56-311.1,345.52a855.2,855.2,0,0,1-119-132.1l.05,0,376.14-273.29,55-40a319.68,319.68,0,0,0,32.38,37.88Q1198.86,1080.69,1205,1086.25Z" transform="translate(-567.01 0.2)"/><path class="cls-37" d="M1160.6,1036.93l-55,40L729.44,1350.2l-.05,0a849.54,849.54,0,0,1-89-153.93l.19-.08,424.74-189.11,62.09-27.64A316.86,316.86,0,0,0,1160.6,1036.93Z" transform="translate(-567.01 0.2)"/><path class="cls-29" d="M1105.58,623.67l55,40a316.86,316.86,0,0,0-33.23,57.46l-62.09-27.64L640.54,504.36l-.19-.08a849.54,849.54,0,0,1,89-153.93l.05,0Z" transform="translate(-567.01 0.2)"/><path class="cls-38" d="M1065.28,693.47l62.09,27.64a313.64,313.64,0,0,0-20.51,63.15l-66.49-14.13L585.6,673.46l-.17,0a843.75,843.75,0,0,1,54.92-169.14l.19.08Z" transform="translate(-567.01 0.2)"/><path class="cls-39" d="M1127.37,979.47l-62.09,27.64L640.54,1196.22l-.19.08a843.75,843.75,0,0,1-54.92-169.14l.17,0,454.77-96.67,66.49-14.13A313.64,313.64,0,0,0,1127.37,979.47Z" transform="translate(-567.01 0.2)"/><path class="cls-40" d="M1040.37,770.13l66.49,14.13a318.51,318.51,0,0,0-6.88,66H567a853.81,853.81,0,0,1,18.42-176.87l.17,0Z" transform="translate(-567.01 0.2)"/><path class="cls-41" d="M1106.86,916.32l-66.49,14.13L585.6,1027.12l-.17,0A853.81,853.81,0,0,1,567,850.29h533A318.51,318.51,0,0,0,1106.86,916.32Z" transform="translate(-567.01 0.2)"/></g></g><g id="Layer_2" data-name="Layer 2"><g id="CIRCLE"><text class="cls-42" transform="matrix(0.16, -0.99, 0.99, 0.16, 582.15, 817.49)">B</text><text class="cls-42" transform="translate(585.62 797.01) rotate(-77.66)">i</text><text class="cls-42" transform="translate(587.26 788.6) rotate(-74.47)">n</text><text class="cls-42" transform="translate(592.84 768.37) rotate(-69.98)">n</text><text class="cls-42" transform="translate(600.04 748.61) rotate(-65.72)">e</text><text class="cls-42" transform="translate(607.74 731.35) rotate(-61.47)">n</text><text class="cls-42" transform="translate(618.05 712.72) rotate(-58.39)"> </text><text class="cls-42" transform="matrix(0.57, -0.82, 0.82, 0.57, 621.99, 706.02)">e</text><text class="cls-42" transform="translate(632.62 690.4) rotate(-51.32)">n</text><text class="cls-42" transform="matrix(0.67, -0.75, 0.75, 0.67, 646.06, 673.87)"> </text><text class="cls-42" transform="matrix(0.71, -0.71, 0.71, 0.71, 651.03, 667.98)">b</text><text class="cls-42" transform="translate(666.22 652.67) rotate(-40.68)">u</text><text class="cls-42" transform="matrix(0.79, -0.61, 0.61, 0.79, 682.34, 639.02)">i</text><text class="cls-42" transform="translate(689.26 633.64) rotate(-35.29)">t</text><text class="cls-42" transform="translate(699.1 626.53) rotate(-32.01)">e</text><text class="cls-42" transform="matrix(0.88, -0.47, 0.47, 0.88, 715.09, 616.44)">n</text><text class="cls-42" transform="translate(734.01 606.66) rotate(-24.68)"> </text><text class="cls-42" transform="translate(741.02 603.29) rotate(-21.93)">k</text><text class="cls-42" transform="translate(758.09 596.4) rotate(-17.94)">a</text><text class="cls-42" transform="translate(775.33 590.71) rotate(-13.72)">d</text><text class="cls-42" transform="translate(796.11 585.65) rotate(-9.42)">e</text><text class="cls-42" transform="matrix(0.99, -0.11, 0.11, 0.99, 814.98, 582.6)">r</text><text class="cls-42" transform="translate(827.21 581.24) rotate(-3.22)">s</text><text class="cls-42" transform="translate(842.36 580.46) rotate(-0.92)"> </text><text class="cls-42" transform="matrix(1, 0.02, -0.02, 1, 850.34, 580.33)">l</text><text class="cls-42" transform="translate(859.03 580.32) rotate(3.86)">e</text><text class="cls-42" transform="translate(878.1 581.68) rotate(7.17)">r</text><text class="cls-42" transform="matrix(0.98, 0.18, -0.18, 0.98, 889.84, 583.03)">e</text><text class="cls-42" transform="translate(908.47 586.37) rotate(14.67)">n</text><text class="cls-42" transform="matrix(0.95, 0.31, -0.31, 0.95, 929.02, 591.92)"> </text><text class="cls-42" transform="translate(936.46 594.14) rotate(20.66)">e</text><text class="cls-42" transform="translate(954.16 600.73) rotate(24.91)">n</text><text class="cls-42" transform="translate(973.41 609.85) rotate(28)"> </text><text class="cls-42" transform="translate(980.34 613.35) rotate(30.87)">e</text><text class="cls-42" transform="translate(996.69 623.22) rotate(34.18)">r</text><text class="cls-42" transform="matrix(0.79, 0.61, -0.61, 0.79, 1007.65, 630.56)">v</text><text class="cls-42" transform="translate(1021.96 641.54) rotate(41.42)">a</text><text class="cls-42" transform="translate(1035.69 653.75) rotate(44.65)">r</text><text class="cls-42" transform="translate(1044.64 662.63) rotate(46.92)">i</text><text class="cls-42" transform="matrix(0.64, 0.77, -0.77, 0.64, 1050.63, 668.75)">n</text><text class="cls-42" transform="matrix(0.58, 0.81, -0.81, 0.58, 1064.15, 684.83)">g</text><text class="cls-42" transform="matrix(0.54, 0.84, -0.84, 0.54, 1076.47, 702.38)"> </text><text class="cls-42" transform="translate(1080.77 708.79) rotate(60.65)">o</text><text class="cls-42" transform="matrix(0.42, 0.91, -0.91, 0.42, 1090.99, 726.85)">p</text><text class="cls-42" transform="translate(1100.07 746.36) rotate(69.72)">d</text><text class="cls-42" transform="matrix(0.27, 0.96, -0.96, 0.27, 1107.5, 766.38)">o</text><text class="cls-42" transform="matrix(0.2, 0.98, -0.98, 0.2, 1113.16, 786.4)">e</text><text class="cls-42" transform="translate(1117.01 804.91) rotate(82.7)">n</text><text class="cls-43" transform="matrix(0, 1, -1, 0, 555.54, 846.01)"> </text><text class="cls-43" transform="matrix(0.02, 1, -1, 0.02, 555.52, 853.48)"> </text><text class="cls-43" transform="matrix(0.05, 1, -1, 0.05, 555.69, 861)"> </text><text class="cls-43" transform="translate(556.05 868.49) rotate(85.86)"> </text><text class="cls-43" transform="translate(556.49 876.2) rotate(83.28)">B</text><text class="cls-43" transform="translate(558.8 895.39) rotate(79.66)">e</text><text class="cls-43" transform="matrix(0.24, 0.97, -0.97, 0.24, 561.98, 912.87)">g</text><text class="cls-43" transform="matrix(0.3, 0.95, -0.95, 0.3, 566.82, 932.03)">e</text><text class="cls-43" transform="translate(572.25 948.7) rotate(69.77)">l</text><text class="cls-43" transform="translate(575.12 956.75) rotate(67.22)">e</text><text class="cls-43" transform="translate(582.02 972.88) rotate(64.68)">i</text><text class="cls-43" transform="translate(585.55 980.64) rotate(61.93)">d</text><text class="cls-43" transform="matrix(0.51, 0.86, -0.86, 0.51, 594.97, 997.98)">i</text><text class="cls-43" transform="matrix(0.55, 0.83, -0.83, 0.55, 599.23, 1005.35)">n</text><text class="cls-43" transform="matrix(0.61, 0.79, -0.79, 0.61, 610.1, 1021.72)">g</text><text class="cls-43" transform="matrix(0.64, 0.77, -0.77, 0.64, 622.08, 1037.16)"> </text><text class="cls-43" transform="matrix(0.66, 0.75, -0.75, 0.66, 626.89, 1042.9)"> </text><text class="cls-43" transform="translate(631.87 1048.54) rotate(47.11)"> </text><text class="cls-43" transform="translate(636.97 1054.02) rotate(45.67)"> </text><text class="cls-43" transform="matrix(0.72, 0.7, -0.7, 0.72, 642.21, 1059.38)"> </text><text class="cls-43" transform="matrix(0.73, 0.68, -0.68, 0.73, 647.6, 1064.62)"> </text><text class="cls-43" transform="translate(653.1 1069.7) rotate(41.32)"> </text><text class="cls-43" transform="matrix(0.77, 0.64, -0.64, 0.77, 658.73, 1074.65)"> </text><text class="cls-43" transform="translate(664.58 1079.65) rotate(37.48)">F</text><text class="cls-43" transform="translate(676.98 1089.18) rotate(34.47)">a</text><text class="cls-43" transform="translate(691.05 1098.8) rotate(31.28)">c</text><text class="cls-43" transform="translate(704.52 1106.89) rotate(28.93)">i</text><text class="cls-43" transform="matrix(0.89, 0.46, -0.46, 0.89, 711.77, 1110.89)">l</text><text class="cls-43" transform="translate(719.2 1114.72) rotate(25.69)">i</text><text class="cls-43" transform="translate(726.71 1118.36) rotate(23.74)">t</text><text class="cls-43" transform="matrix(0.93, 0.36, -0.36, 0.93, 737.34, 1123.1)">e</text><text class="cls-43" transform="translate(753.78 1129.25) rotate(18.35)">i</text><text class="cls-43" transform="translate(761.7 1131.91) rotate(16.39)">t</text><text class="cls-43" transform="translate(772.82 1135.24) rotate(13.56)">e</text><text class="cls-43" transform="translate(790.1 1139.42) rotate(9.91)">n</text><text class="cls-43" transform="matrix(1, -0.03, 0.03, 1, 855.5, 1145.43)"> </text><text class="cls-43" transform="matrix(1, -0.05, 0.05, 1, 863, 1145.21)"> </text><text class="cls-43" transform="translate(870.49 1144.8) rotate(-4.53)"> </text><text class="cls-43" transform="translate(878.2 1144.31) rotate(-7.11)">B</text><text class="cls-43" transform="matrix(0.98, -0.19, 0.19, 0.98, 897.35, 1141.87)">e</text><text class="cls-43" transform="matrix(0.97, -0.25, 0.25, 0.97, 914.82, 1138.57)">g</text><text class="cls-43" transform="matrix(0.95, -0.31, 0.31, 0.95, 933.96, 1133.6)">e</text><text class="cls-43" transform="translate(950.61 1128.05) rotate(-20.62)">l</text><text class="cls-43" transform="translate(958.63 1125.12) rotate(-23.17)">e</text><text class="cls-43" transform="translate(974.71 1118.12) rotate(-25.71)">i</text><text class="cls-43" transform="matrix(0.88, -0.48, 0.48, 0.88, 982.44, 1114.54)">d</text><text class="cls-43" transform="matrix(0.86, -0.52, 0.52, 0.86, 999.71, 1105)">i</text><text class="cls-43" transform="translate(1007.05 1100.69) rotate(-33.92)">n</text><text class="cls-43" transform="matrix(0.79, -0.61, 0.61, 0.79, 1023.33, 1089.71)">g</text><text class="cls-43" transform="matrix(0.76, -0.65, 0.65, 0.76, 1038.72, 1077.62)"> </text><text class="cls-43" transform="matrix(0.75, -0.67, 0.67, 0.75, 1044.43, 1072.76)"> </text><text class="cls-43" transform="matrix(0.73, -0.69, 0.69, 0.73, 1050.01, 1067.76)"> </text><text class="cls-43" transform="matrix(0.71, -0.7, 0.7, 0.71, 1055.48, 1062.61)"> </text><text class="cls-43" transform="translate(1060.8 1057.34) rotate(-46.17)"> </text><text class="cls-43" transform="translate(1065.98 1051.93) rotate(-47.61)"> </text><text class="cls-43" transform="matrix(0.66, -0.76, 0.76, 0.66, 1071.05, 1046.37)"> </text><text class="cls-43" transform="translate(1075.96 1040.71) rotate(-50.52)"> </text><text class="cls-43" transform="matrix(0.62, -0.79, 0.79, 0.62, 1080.72, 1034.92)"> </text><text class="cls-43" transform="matrix(0.58, -0.81, 0.81, 0.58, 1085.52, 1028.92)">F</text><text class="cls-43" transform="translate(1094.66 1016.22) rotate(-57.37)">a</text><text class="cls-43" transform="translate(1103.82 1001.85) rotate(-60.57)">c</text><text class="cls-43" transform="translate(1111.47 988.12) rotate(-62.92)">i</text><text class="cls-43" transform="matrix(0.43, -0.9, 0.9, 0.43, 1115.24, 980.74)">l</text><text class="cls-43" transform="translate(1118.82 973.2) rotate(-66.17)">i</text><text class="cls-43" transform="matrix(0.37, -0.93, 0.93, 0.37, 1122.21, 965.57)">t</text><text class="cls-43" transform="translate(1126.6 954.8) rotate(-70.96)">e</text><text class="cls-43" transform="translate(1132.22 938.19) rotate(-73.51)">i</text><text class="cls-43" transform="translate(1134.62 930.17) rotate(-75.47)">t</text><text class="cls-43" transform="translate(1137.59 918.94) rotate(-78.3)">e</text><text class="cls-43" transform="matrix(0.14, -0.99, 0.99, 0.14, 1141.2, 901.53)">n</text></g><g id="LINE-2" data-name="LINE"><text class="cls-44" transform="translate(1191.85 1061.91) rotate(30)">O</text><text class="cls-44" transform="matrix(0.87, 0.5, -0.5, 0.87, 1213.83, 1074.6)">p</text><text class="cls-44" transform="translate(1231.97 1085.08) rotate(30)">e</text><text class="cls-44" transform="matrix(0.87, 0.5, -0.5, 0.87, 1247.98, 1094.32)">n</text><text class="cls-44" transform="translate(1265.69 1104.55) rotate(30)"> </text><text class="cls-44" transform="matrix(0.87, 0.5, -0.5, 0.87, 1272.46, 1108.45)">w</text><text class="cls-44" transform="translate(1295.61 1121.82) rotate(30)">o</text><text class="cls-44" transform="translate(1313.14 1131.94) rotate(30)">r</text><text class="cls-44" transform="translate(1323.71 1138.04) rotate(30)">k</text><text class="cls-44" transform="translate(1338.67 1146.68) rotate(30)">s</text><text class="cls-44" transform="translate(1351.3 1153.97) rotate(30)">h</text><text class="cls-44" transform="translate(1369.01 1164.2) rotate(30)">o</text><text class="cls-44" transform="translate(1386.54 1174.32) rotate(30)">p</text><text class="cls-44" transform="translate(1404.7 1184.8) rotate(30)">s</text></g><g id="LINE-3" data-name="LINE"><text class="cls-44" transform="matrix(0.74, 0.67, -0.67, 0.74, 1138.57, 1126.59)">H</text><text class="cls-44" transform="translate(1156.41 1142.66) rotate(42)">B</text><text class="cls-44" transform="translate(1171.25 1156.02) rotate(42)">O</text><text class="cls-44" transform="translate(1190.13 1173.02) rotate(42)"> </text><text class="cls-44" transform="translate(1195.92 1178.23) rotate(42)">v</text><text class="cls-44" transform="matrix(0.74, 0.67, -0.67, 0.74, 1208.99, 1189.99)">a</text><text class="cls-44" transform="matrix(0.74, 0.67, -0.67, 0.74, 1222.19, 1201.88)">k</text><text class="cls-44" transform="matrix(0.74, 0.67, -0.67, 0.74, 1235.04, 1213.45)">d</text><text class="cls-44" transform="matrix(0.74, 0.67, -0.67, 0.74, 1250.49, 1227.36)">o</text><text class="cls-44" transform="matrix(0.74, 0.67, -0.67, 0.74, 1265.5, 1240.88)">c</text><text class="cls-44" transform="translate(1277.61 1251.78) rotate(42)">e</text><text class="cls-44" transform="matrix(0.74, 0.67, -0.67, 0.74, 1291.33, 1264.14)">n</text><text class="cls-44" transform="matrix(0.74, 0.67, -0.67, 0.74, 1306.41, 1277.72)">t</text><text class="cls-44" transform="matrix(0.74, 0.67, -0.67, 0.74, 1315.32, 1285.74)">e</text><text class="cls-44" transform="translate(1329.04 1298.09) rotate(42)">n</text></g><g id="LINE-4" data-name="LINE"><text class="cls-44" transform="matrix(0.59, 0.81, -0.81, 0.59, 1073.07, 1177.98)">H</text><text class="cls-44" transform="translate(1087.2 1197.42) rotate(54)">B</text><text class="cls-44" transform="translate(1098.94 1213.58) rotate(54)">O</text><text class="cls-44" transform="matrix(0.59, 0.81, -0.81, 0.59, 1113.86, 1234.12)"> </text><text class="cls-44" transform="matrix(0.59, 0.81, -0.81, 0.59, 1118.45, 1240.43)">s</text><text class="cls-44" transform="matrix(0.59, 0.81, -0.81, 0.59, 1127.04, 1252.25)">t</text><text class="cls-44" transform="matrix(0.59, 0.81, -0.81, 0.59, 1134.2, 1262.11)">u</text><text class="cls-44" transform="matrix(0.59, 0.81, -0.81, 0.59, 1146.14, 1278.54)">d</text><text class="cls-44" transform="translate(1158.35 1295.35) rotate(54)">e</text><text class="cls-44" transform="translate(1169.21 1310.3) rotate(54)">n</text><text class="cls-44" transform="matrix(0.59, 0.81, -0.81, 0.59, 1181.14, 1326.71)">t</text><text class="cls-44" transform="matrix(0.59, 0.81, -0.81, 0.59, 1188.18, 1336.41)">e</text><text class="cls-44" transform="matrix(0.59, 0.81, -0.81, 0.59, 1199.02, 1351.33)">n</text><text class="cls-44" transform="matrix(0.59, 0.81, -0.81, 0.59, 1211.05, 1367.89)"> </text><text class="cls-44" transform="matrix(0.59, 0.81, -0.81, 0.59, 1215.64, 1374.21)">(</text><text class="cls-44" transform="translate(1221.8 1382.68) rotate(54)">B</text><text class="cls-44" transform="translate(1233.53 1398.83) rotate(54)">u</text><text class="cls-44" transform="translate(1245.47 1415.26) rotate(54)">d</text><text class="cls-44" transform="translate(1257.68 1432.07) rotate(54)">d</text><text class="cls-44" transform="matrix(0.59, 0.81, -0.81, 0.59, 1269.9, 1448.89)">i</text><text class="cls-44" transform="matrix(0.59, 0.81, -0.81, 0.59, 1274.97, 1455.87)">e</text><text class="cls-44" transform="translate(1285.82 1470.79) rotate(54)">s</text><text class="cls-44" transform="matrix(0.59, 0.81, -0.81, 0.59, 1294.4, 1482.61)">)</text></g><g id="LINE-5" data-name="LINE"><text class="cls-44" transform="translate(1003.08 1223.75) rotate(66)">V</text><text class="cls-44" transform="translate(1010.95 1241.42) rotate(66)">a</text><text class="cls-44" transform="matrix(0.41, 0.91, -0.91, 0.41, 1018.17, 1257.65)">k</text><text class="cls-44" transform="matrix(0.41, 0.91, -0.91, 0.41, 1025.2, 1273.44)">e</text><text class="cls-44" transform="translate(1032.66 1290.18) rotate(66)">x</text><text class="cls-44" transform="translate(1039.6 1305.78) rotate(66)">p</text><text class="cls-44" transform="matrix(0.41, 0.91, -0.91, 0.41, 1048.13, 1324.94)">e</text><text class="cls-44" transform="translate(1055.64 1341.79) rotate(66)">r</text><text class="cls-44" transform="translate(1060.9 1353.62) rotate(66)">t</text><text class="cls-44" transform="translate(1065.86 1364.75) rotate(66)">s</text></g><g id="LINE-6" data-name="LINE"><text class="cls-44" transform="matrix(0.21, 0.98, -0.98, 0.21, 921.44, 1243.99)">M</text><text class="cls-44" transform="translate(927.64 1273.2) rotate(78)">e</text><text class="cls-44" transform="translate(931.48 1291.26) rotate(78)">n</text><text class="cls-44" transform="translate(935.7 1311.12) rotate(78)">t</text><text class="cls-44" transform="translate(938.19 1322.83) rotate(78)">o</text><text class="cls-44" transform="matrix(0.21, 0.98, -0.98, 0.21, 942.4, 1342.61)">r</text><text class="cls-44" transform="translate(944.83 1354.05) rotate(78)">e</text><text class="cls-44" transform="translate(948.67 1372.11) rotate(78)">n</text></g><g id="LINE-7" data-name="LINE"><text class="cls-44" transform="translate(862.91 1700.83) rotate(-90)">	<tspan x="35.99" y="0">	</tspan><tspan x="72" y="0">	</tspan><tspan x="107.99" y="0">	</tspan><tspan x="143.99" y="0">	</tspan><tspan x="179.99" y="0">	</tspan><tspan x="215.99" y="0"> </tspan><tspan x="223.82" y="0"> </tspan><tspan x="231.62" y="0">L</tspan><tspan x="248.5" y="0">e</tspan><tspan x="266.95" y="0">e</tspan><tspan x="285.43" y="0">r</tspan><tspan x="297.63" y="0">b</tspan><tspan x="318.57" y="0">e</tspan><tspan x="337.03" y="0">d</tspan><tspan x="357.82" y="0">r</tspan><tspan x="370.02" y="0">i</tspan><tspan x="378.66" y="0">j</tspan><tspan x="387.6" y="0">v</tspan><tspan x="404.94" y="0">e</tspan><tspan x="423.42" y="0">n</tspan></text></g><g id="LINE-8" data-name="LINE"><text class="cls-44" transform="translate(685.84 1684.83) rotate(-78)"> </text><text class="cls-44" transform="translate(687.46 1677.21) rotate(-78)"> </text><text class="cls-44" transform="matrix(0.21, -0.98, 0.98, 0.21, 689.09, 1669.55)"> </text><text class="cls-44" transform="translate(690.71 1661.92) rotate(-78)">G</text><text class="cls-44" transform="translate(695.7 1638.44) rotate(-78)">e</text><text class="cls-44" transform="translate(699.54 1620.4) rotate(-78)">r</text><text class="cls-44" transform="translate(701.97 1608.97) rotate(-78)">e</text><text class="cls-44" transform="translate(705.8 1590.92) rotate(-78)">e</text><text class="cls-44" transform="translate(709.64 1572.86) rotate(-78)">d</text><text class="cls-44" transform="translate(713.96 1552.54) rotate(-78)">s</text><text class="cls-44" transform="translate(717 1538.25) rotate(-78)">c</text><text class="cls-44" transform="translate(720.43 1522.12) rotate(-78)">h</text><text class="cls-44" transform="translate(724.68 1502.1) rotate(-78)">a</text><text class="cls-44" transform="translate(728.37 1484.73) rotate(-78)">p</text><text class="cls-44" transform="translate(732.74 1464.2) rotate(-78)"> </text><text class="cls-44" transform="translate(734.36 1456.57) rotate(-78)">&amp;<tspan x="22.28" y="0"> </tspan></text><text class="cls-44" transform="translate(740.62 1427.13) rotate(-78)">w</text><text class="cls-44" transform="translate(746.18 1400.97) rotate(-78)">e</text><text class="cls-44" transform="translate(750.02 1382.88) rotate(-78)">r</text><text class="cls-44" transform="matrix(0.21, -0.98, 0.98, 0.21, 752.56, 1370.96)">k</text><text class="cls-44" transform="translate(756.28 1353.45) rotate(-78)">r</text><text class="cls-44" transform="translate(758.78 1341.66) rotate(-78)">u</text><text class="cls-44" transform="translate(763.01 1321.8) rotate(-78)">i</text><text class="cls-44" transform="translate(764.8 1313.38) rotate(-78)">m</text><text class="cls-44" transform="translate(771.16 1283.44) rotate(-78)">t</text><text class="cls-44" transform="translate(773.65 1271.73) rotate(-78)">e</text><text class="cls-44" transform="translate(777.48 1253.69) rotate(-78)">s</text></g><g id="LINE-9" data-name="LINE"><text class="cls-42" transform="translate(516.84 1632.77) rotate(-66)">	</text><text class="cls-42" transform="translate(531.48 1599.88) rotate(-66)">	</text><text class="cls-42" transform="matrix(0.41, -0.91, 0.91, 0.41, 546.13, 1566.98)">	</text><text class="cls-42" transform="translate(560.77 1534.1) rotate(-66)">P</text><text class="cls-42" transform="translate(569.27 1514.99) rotate(-66)">l</text><text class="cls-42" transform="translate(573.08 1506.45) rotate(-66)">o</text><text class="cls-42" transform="translate(581.95 1486.53) rotate(-66)">t</text><text class="cls-42" transform="translate(587.29 1474.52) rotate(-66)">t</text><text class="cls-42" transform="translate(592.53 1462.75) rotate(-66)">e</text><text class="cls-42" transform="translate(600.62 1444.59) rotate(-66)">r</text><text class="cls-42" transform="translate(605.9 1432.72) rotate(-66)"> </text><text class="cls-42" transform="matrix(0.41, -0.91, 0.91, 0.41, 609.32, 1425.05)">&amp;</text><text class="cls-42" transform="translate(619.08 1403.12) rotate(-66)"> </text><text class="cls-42" transform="translate(622.51 1395.42) rotate(-66)">s</text><text class="cls-42" transform="matrix(0.41, -0.91, 0.91, 0.41, 628.9, 1381.06)">n</text><text class="cls-42" transform="translate(637.86 1360.95) rotate(-66)">i</text><text class="cls-42" transform="translate(641.63 1352.48) rotate(-66)">j</text><text class="cls-42" transform="matrix(0.41, -0.91, 0.91, 0.41, 645.55, 1343.67)">m</text><text class="cls-42" transform="translate(659.01 1313.44) rotate(-66)">a</text><text class="cls-42" transform="translate(666.8 1295.95) rotate(-66)">c</text><text class="cls-42" transform="translate(674.03 1279.72) rotate(-66)">h</text><text class="cls-42" transform="translate(682.98 1259.6) rotate(-66)">i</text><text class="cls-42" transform="translate(686.77 1251.1) rotate(-66)">n</text><text class="cls-42" transform="translate(695.73 1230.97) rotate(-66)">e</text></g><g id="LINE-10" data-name="LINE"><text class="cls-42" transform="translate(227.5 1429.43) rotate(-42)">	</text><text class="cls-42" transform="matrix(0.74, -0.67, 0.67, 0.74, 254.26, 1405.34)">	</text><text class="cls-42" transform="translate(281.02 1381.24) rotate(-42)">	</text><text class="cls-42" transform="matrix(0.74, -0.67, 0.67, 0.74, 307.76, 1357.16)"> </text><text class="cls-42" transform="translate(314.01 1351.53) rotate(-42)"> </text><text class="cls-42" transform="matrix(0.74, -0.67, 0.67, 0.74, 320.26, 1345.91)">	</text><text class="cls-42" transform="translate(334.52 1333.07) rotate(-42)"> </text><text class="cls-42" transform="matrix(0.74, -0.67, 0.67, 0.74, 340.77, 1327.44)"> </text><text class="cls-42" transform="matrix(0.74, -0.67, 0.67, 0.74, 347.02, 1321.81)"> </text><text class="cls-42" transform="translate(353.27 1316.19) rotate(-42)"> </text><text class="cls-42" transform="matrix(0.74, -0.67, 0.67, 0.74, 359.52, 1310.56)">O</text><text class="cls-42" transform="matrix(0.74, -0.67, 0.67, 0.74, 379.85, 1292.25)">p</text><text class="cls-42" transform="matrix(0.74, -0.67, 0.67, 0.74, 396.63, 1277.14)">e</text><text class="cls-42" transform="translate(411.39 1263.85) rotate(-42)">n</text><text class="cls-42" transform="translate(427.76 1249.11) rotate(-42)"> </text><text class="cls-42" transform="matrix(0.74, -0.67, 0.67, 0.74, 434.02, 1243.48)">w</text><text class="cls-42" transform="matrix(0.74, -0.67, 0.67, 0.74, 455.44, 1224.19)">o</text><text class="cls-42" transform="matrix(0.74, -0.67, 0.67, 0.74, 471.62, 1209.62)">r</text><text class="cls-42" transform="matrix(0.74, -0.67, 0.67, 0.74, 481.39, 1200.82)">k</text><text class="cls-42" transform="translate(495.22 1188.37) rotate(-42)">s</text><text class="cls-42" transform="translate(506.9 1177.86) rotate(-42)">h</text><text class="cls-42" transform="translate(523.27 1163.12) rotate(-42)">o</text><text class="cls-42" transform="translate(539.45 1148.55) rotate(-42)">p</text><text class="cls-42" transform="matrix(0.74, -0.67, 0.67, 0.74, 556.24, 1133.43)">s</text></g><g id="LINE-11" data-name="LINE"><text class="cls-42" transform="matrix(0.87, -0.5, 0.5, 0.87, 120.75, 1287.25)">	</text><text class="cls-42" transform="translate(151.93 1269.25) rotate(-30)">	</text><text class="cls-42" transform="matrix(0.87, -0.5, 0.5, 0.87, 183.11, 1251.24)">	</text><text class="cls-42" transform="translate(214.28 1233.25) rotate(-30)">	</text><text class="cls-42" transform="matrix(0.87, -0.5, 0.5, 0.87, 245.46, 1215.25)">	</text><text class="cls-42" transform="translate(276.63 1197.25) rotate(-30)">	</text><text class="cls-42" transform="matrix(0.87, -0.5, 0.5, 0.87, 307.81, 1179.25)">	</text><text class="cls-42" transform="translate(338.99 1161.24) rotate(-30)">	</text><text class="cls-42" transform="matrix(0.87, -0.5, 0.5, 0.87, 370.17, 1143.25)">	</text><text class="cls-42" transform="translate(401.35 1125.24) rotate(-30)">C</text><text class="cls-42" transform="matrix(0.87, -0.5, 0.5, 0.87, 420.9, 1113.96)">o</text><text class="cls-42" transform="translate(439.76 1103.07) rotate(-30)">a</text><text class="cls-42" transform="matrix(0.87, -0.5, 0.5, 0.87, 456.33, 1093.5)">c</text><text class="cls-42" transform="translate(471.74 1084.6) rotate(-30)">h</text><text class="cls-42" transform="translate(490.8 1073.6) rotate(-30)">e</text><text class="cls-42" transform="matrix(0.87, -0.5, 0.5, 0.87, 508.01, 1063.66)">s</text></g><g id="LINE-12" data-name="LINE"><text class="cls-42" transform="matrix(0.95, -0.31, 0.31, 0.95, 45.89, 1125.98)">	</text><text class="cls-42" transform="translate(80.13 1114.86) rotate(-18)">	</text><text class="cls-42" transform="translate(114.37 1103.73) rotate(-18)">	</text><text class="cls-42" transform="translate(148.6 1092.61) rotate(-18)">	</text><text class="cls-42" transform="matrix(0.95, -0.31, 0.31, 0.95, 182.84, 1081.48)">	</text><text class="cls-42" transform="translate(217.07 1070.36) rotate(-18)">	</text><text class="cls-42" transform="translate(251.31 1059.24) rotate(-18)"> </text><text class="cls-42" transform="translate(259.33 1056.63) rotate(-18)"> </text><text class="cls-42" transform="translate(267.32 1054.04) rotate(-18)"> </text><text class="cls-42" transform="translate(273.95 1051.88) rotate(-18)">V</text><text class="cls-42" transform="translate(293.78 1045.44) rotate(-18)">a</text><text class="cls-42" transform="translate(311.96 1039.53) rotate(-18)">k</text><text class="cls-42" transform="translate(329.67 1033.78) rotate(-18)">d</text><text class="cls-42" transform="translate(350.96 1026.86) rotate(-18)">o<tspan x="21.77" y="0">c</tspan></text><text class="cls-42" transform="translate(388.37 1014.71) rotate(-18)">e</text><text class="cls-42" transform="translate(407.28 1008.56) rotate(-18)">n</text><text class="cls-42" transform="translate(428.08 1001.8) rotate(-18)">t</text><text class="cls-42" transform="translate(440.33 997.82) rotate(-18)">e</text><text class="cls-42" transform="translate(459.24 991.68) rotate(-18)">n</text></g><g id="LINE-13" data-name="LINE"><text class="cls-42" transform="translate(6.19 952.68) rotate(-6)">	</text><text class="cls-42" transform="matrix(0.99, -0.1, 0.1, 0.99, 42, 948.91)">	</text><text class="cls-42" transform="translate(77.81 945.15) rotate(-6)">	</text><text class="cls-42" transform="translate(113.6 941.39) rotate(-6)">	</text><text class="cls-42" transform="translate(149.41 937.62) rotate(-6)">	</text><text class="cls-42" transform="translate(185.2 933.86) rotate(-6)">	</text><text class="cls-42" transform="translate(221.01 930.1) rotate(-6)">	</text><text class="cls-42" transform="translate(256.81 926.34) rotate(-6)">I</text><text class="cls-42" transform="translate(266.63 925.3) rotate(-6)">n</text><text class="cls-42" transform="matrix(0.99, -0.1, 0.1, 0.99, 288.54, 923)">s</text><text class="cls-42" transform="translate(304.16 921.36) rotate(-6)">t</text><text class="cls-42" transform="translate(317.24 919.99) rotate(-6)">r</text><text class="cls-42" transform="matrix(0.99, -0.1, 0.1, 0.99, 330.15, 918.63)">u</text><text class="cls-42" transform="translate(351.89 916.34) rotate(-6)">c</text><text class="cls-42" transform="translate(370.08 914.43) rotate(-6)">t</text><text class="cls-42" transform="translate(382.92 913.08) rotate(-6)">e</text><text class="cls-42" transform="translate(402.69 911) rotate(-6)">u</text><text class="cls-42" transform="matrix(0.99, -0.1, 0.1, 0.99, 424.42, 908.72)">r</text><text class="cls-42" transform="matrix(0.99, -0.1, 0.1, 0.99, 437.34, 907.36)">s</text></g><g id="LINE-14" data-name="LINE"><text class="cls-45" transform="translate(3.7 772.05) rotate(6)">	</text><text class="cls-45" transform="matrix(0.99, 0.1, -0.1, 0.99, 39.5, 775.82)">	</text><text class="cls-45" transform="translate(75.3 779.58) rotate(6)"> </text><text class="cls-45" transform="matrix(0.99, 0.1, -0.1, 0.99, 81.87, 780.27)"> </text><text class="cls-45" transform="matrix(0.99, 0.1, -0.1, 0.99, 88.45, 780.96)"> </text><text class="cls-45" transform="translate(95.03 781.65) rotate(6)">A</text><text class="cls-45" transform="translate(114.11 783.66) rotate(6)">a</text><text class="cls-45" transform="translate(129.08 785.23) rotate(6)">n</text><text class="cls-45" transform="translate(146.16 787.03) rotate(6)">t</text><text class="cls-45" transform="matrix(0.99, 0.1, -0.1, 0.99, 156.24, 788.09)">o</text><text class="cls-45" transform="translate(173.27 789.88) rotate(6)">n</text><text class="cls-45" transform="matrix(0.99, 0.1, -0.1, 0.99, 190.46, 791.68)">e</text><text class="cls-45" transform="translate(206.02 793.32) rotate(6)">n</text><text class="cls-45" transform="translate(223.21 795.13) rotate(6)"> </text><text class="cls-45" transform="matrix(0.99, 0.1, -0.1, 0.99, 229.79, 795.82)">v</text><text class="cls-45" transform="translate(244.58 797.37) rotate(6)">a</text><text class="cls-45" transform="translate(259.53 798.94) rotate(6)">n</text><text class="cls-45" transform="translate(276.76 800.75) rotate(6)"> </text><text class="cls-45" transform="translate(283.33 801.45) rotate(6)">c</text><text class="cls-45" transform="translate(297.01 802.88) rotate(6)">o</text><text class="cls-45" transform="translate(314.05 804.67) rotate(6)">m</text><text class="cls-45" transform="translate(339.92 807.39) rotate(6)">p</text><text class="cls-45" transform="translate(357.56 809.25) rotate(6)">e</text><text class="cls-45" transform="matrix(0.99, 0.1, -0.1, 0.99, 373.1, 810.88)">t</text><text class="cls-45" transform="translate(383.18 811.94) rotate(6)">e</text><text class="cls-45" transform="matrix(0.99, 0.1, -0.1, 0.99, 398.69, 813.57)">n</text><text class="cls-45" transform="matrix(0.99, 0.1, -0.1, 0.99, 415.8, 815.37)">t</text><text class="cls-45" transform="translate(426.06 816.45) rotate(6)">i</text><text class="cls-45" transform="matrix(0.99, 0.1, -0.1, 0.99, 433.32, 817.21)">e</text><text class="cls-45" transform="translate(448.83 818.84) rotate(6)">s</text></g><g id="LINE-15" data-name="LINE"><text class="cls-43" transform="matrix(0.95, 0.31, -0.31, 0.95, 38.21, 598.62)"> </text><text class="cls-43" transform="matrix(0.95, 0.31, -0.31, 0.95, 45.07, 600.85)"> </text><text class="cls-43" transform="matrix(0.95, 0.31, -0.31, 0.95, 51.92, 603.07)"> </text><text class="cls-43" transform="translate(57.62 604.92) rotate(18)">V</text><text class="cls-43" transform="translate(74.61 610.44) rotate(18)">e</text><text class="cls-43" transform="matrix(0.95, 0.31, -0.31, 0.95, 90.83, 615.71)">r</text><text class="cls-43" transform="matrix(0.95, 0.31, -0.31, 0.95, 101.68, 619.24)">z</text><text class="cls-43" transform="translate(115.53 623.74) rotate(18)">i</text><text class="cls-43" transform="translate(123.12 626.21) rotate(18)">l</text><text class="cls-43" transform="translate(130.74 628.68) rotate(18)">v</text><text class="cls-43" transform="translate(145.98 633.63) rotate(18)">e</text><text class="cls-43" transform="translate(162.18 638.9) rotate(18)">r</text><text class="cls-43" transform="translate(172.44 642.23) rotate(18)">e</text><text class="cls-43" transform="translate(188.65 647.5) rotate(18)">n</text><text class="cls-43" transform="translate(206.6 653.33) rotate(18)"> <tspan x="7.22" y="0"> </tspan></text><text class="cls-43" transform="matrix(0.95, 0.31, -0.31, 0.95, 220.31, 657.79)">v</text><text class="cls-43" transform="translate(235.74 662.8) rotate(18)">a</text><text class="cls-43" transform="translate(251.33 667.86) rotate(18)">n</text><text class="cls-43" transform="translate(269.3 673.7) rotate(18)"> </text><text class="cls-43" transform="matrix(0.95, 0.31, -0.31, 0.95, 276.15, 675.93)">c</text><text class="cls-43" transform="translate(290.45 680.58) rotate(18)">o</text><text class="cls-43" transform="translate(308.21 686.35) rotate(18)">m</text><text class="cls-43" transform="translate(335.2 695.11) rotate(18)">p</text><text class="cls-43" transform="translate(353.59 701.09) rotate(18)">e</text><text class="cls-43" transform="translate(369.8 706.36) rotate(18)">t</text><text class="cls-43" transform="translate(380.32 709.78) rotate(18)">e</text><text class="cls-43" transform="translate(396.53 715.04) rotate(18)">n</text><text class="cls-43" transform="translate(414.35 720.83) rotate(18)">t</text><text class="cls-43" transform="translate(425.05 724.31) rotate(18)">i</text><text class="cls-43" transform="translate(432.63 726.77) rotate(18)">e</text><text class="cls-43" transform="matrix(0.95, 0.31, -0.31, 0.95, 448.84, 732.04)">s</text></g><g id="LINE-16" data-name="LINE"><text class="cls-45" transform="translate(108.81 434.41) rotate(30)">	</text><text class="cls-45" transform="matrix(0.87, 0.5, -0.5, 0.87, 139.98, 452.41)">	</text><text class="cls-45" transform="translate(171.16 470.41) rotate(30)">L</text><text class="cls-45" transform="matrix(0.87, 0.5, -0.5, 0.87, 183.53, 477.55)">e</text><text class="cls-45" transform="matrix(0.87, 0.5, -0.5, 0.87, 197.06, 485.37)">r</text><text class="cls-45" transform="matrix(0.87, 0.5, -0.5, 0.87, 205.62, 490.31)">e</text><text class="cls-45" transform="translate(219.15 498.12) rotate(30)">n</text><text class="cls-45" transform="translate(234.13 506.77) rotate(30)"> </text><text class="cls-45" transform="matrix(0.87, 0.5, -0.5, 0.87, 239.85, 510.07)">v</text><text class="cls-45" transform="matrix(0.87, 0.5, -0.5, 0.87, 252.57, 517.41)">o</text><text class="cls-45" transform="matrix(0.87, 0.5, -0.5, 0.87, 267.41, 525.98)">o</text><text class="cls-45" transform="matrix(0.87, 0.5, -0.5, 0.87, 282.24, 534.54)">r</text><text class="cls-45" transform="matrix(0.87, 0.5, -0.5, 0.87, 291.06, 539.63)"> </text><text class="cls-45" transform="matrix(0.87, 0.5, -0.5, 0.87, 296.78, 542.94)">e</text><text class="cls-45" transform="translate(310.31 550.75) rotate(30)">n</text><text class="cls-45" transform="translate(325.3 559.41) rotate(30)"> </text><text class="cls-45" transform="matrix(0.87, 0.5, -0.5, 0.87, 331.03, 562.71)">m</text><text class="cls-45" transform="matrix(0.87, 0.5, -0.5, 0.87, 353.53, 575.7)">e</text><text class="cls-45" transform="translate(367.06 583.52) rotate(30)">t</text><text class="cls-45" transform="matrix(0.87, 0.5, -0.5, 0.87, 376, 588.68)"> </text><text class="cls-45" transform="matrix(0.87, 0.5, -0.5, 0.87, 381.74, 591.99)">d</text><text class="cls-45" transform="matrix(0.87, 0.5, -0.5, 0.87, 396.97, 600.78)">e</text><text class="cls-45" transform="translate(410.49 608.59) rotate(30)"> </text><text class="cls-45" transform="translate(416.22 611.9) rotate(30)">p</text><text class="cls-45" transform="matrix(0.87, 0.5, -0.5, 0.87, 431.57, 620.76)">r</text><text class="cls-45" transform="translate(440.28 625.79) rotate(30)">a</text><text class="cls-45" transform="matrix(0.87, 0.5, -0.5, 0.87, 453.29, 633.3)">k</text><text class="cls-45" transform="matrix(0.87, 0.5, -0.5, 0.87, 465.95, 640.61)">t</text><text class="cls-45" transform="matrix(0.87, 0.5, -0.5, 0.87, 474.88, 645.77)">i</text><text class="cls-45" transform="matrix(0.87, 0.5, -0.5, 0.87, 481.21, 649.42)">j</text><text class="cls-45" transform="translate(487.77 653.21) rotate(30)">k</text></g><g id="LINE-17" data-name="LINE"><text class="cls-43" transform="matrix(0.74, 0.67, -0.67, 0.74, 210.88, 290.01)"> </text><text class="cls-43" transform="translate(216.24 294.83) rotate(42)">	</text><text class="cls-43" transform="matrix(0.74, 0.67, -0.67, 0.74, 237.64, 314.1)">	</text><text class="cls-43" transform="translate(264.38 338.18) rotate(42)">V</text><text class="cls-43" transform="matrix(0.74, 0.67, -0.67, 0.74, 277.67, 350.15)">e</text><text class="cls-43" transform="matrix(0.74, 0.67, -0.67, 0.74, 290.33, 361.55)">r</text><text class="cls-43" transform="matrix(0.74, 0.67, -0.67, 0.74, 298.6, 368.99)">s</text><text class="cls-43" transform="translate(308.61 378) rotate(42)">n</text><text class="cls-43" transform="matrix(0.74, 0.67, -0.67, 0.74, 322.63, 390.63)">e</text><text class="cls-43" transform="translate(335.29 402.03) rotate(42)">l</text><text class="cls-43" transform="matrix(0.74, 0.67, -0.67, 0.74, 341.26, 407.4)">l</text><text class="cls-43" transform="translate(347.23 412.78) rotate(42)">e</text><text class="cls-43" transform="matrix(0.74, 0.67, -0.67, 0.74, 359.89, 424.18)">n</text><text class="cls-43" transform="matrix(0.74, 0.67, -0.67, 0.74, 373.93, 436.82)"> </text><text class="cls-43" transform="matrix(0.74, 0.67, -0.67, 0.74, 379.28, 441.63)">v</text><text class="cls-43" transform="matrix(0.74, 0.67, -0.67, 0.74, 391.34, 452.49)">a</text><text class="cls-43" transform="matrix(0.74, 0.67, -0.67, 0.74, 403.52, 463.46)">n</text><text class="cls-43" transform="translate(417.56 476.1) rotate(42)"> </text><text class="cls-43" transform="matrix(0.74, 0.67, -0.67, 0.74, 422.91, 480.92)">j</text><text class="cls-43" transform="translate(429.06 486.46) rotate(42)">e</text><text class="cls-43" transform="matrix(0.74, 0.67, -0.67, 0.74, 441.71, 497.85)"> </text><text class="cls-43" transform="matrix(0.74, 0.67, -0.67, 0.74, 447.08, 502.68)">o</text><text class="cls-43" transform="matrix(0.74, 0.67, -0.67, 0.74, 460.95, 515.17)">p</text><text class="cls-43" transform="matrix(0.74, 0.67, -0.67, 0.74, 475.34, 528.13)">l</text><text class="cls-43" transform="translate(481.31 533.51) rotate(42)">e</text><text class="cls-43" transform="translate(493.97 544.9) rotate(42)">i</text><text class="cls-43" transform="translate(499.89 550.24) rotate(42)">d</text><text class="cls-43" transform="translate(514.15 563.07) rotate(42)">i</text><text class="cls-43" transform="matrix(0.74, 0.67, -0.67, 0.74, 520.05, 568.38)">n</text><text class="cls-43" transform="translate(534.08 581.02) rotate(42)">g</text></g><g id="LINE-18" data-name="LINE"><text class="cls-45" transform="translate(356.77 189.11) rotate(54)">	</text><text class="cls-45" transform="matrix(0.59, 0.81, -0.81, 0.59, 377.93, 218.23)">	</text><text class="cls-45" transform="matrix(0.59, 0.81, -0.81, 0.59, 399.09, 247.36)">	</text><text class="cls-45" transform="translate(420.26 276.49) rotate(54)">R</text><text class="cls-45" transform="matrix(0.59, 0.81, -0.81, 0.59, 430.18, 290.15)">e</text><text class="cls-45" transform="translate(439.37 302.81) rotate(54)">g</text><text class="cls-45" transform="matrix(0.59, 0.81, -0.81, 0.59, 449.5, 316.75)">i</text><text class="cls-45" transform="matrix(0.59, 0.81, -0.81, 0.59, 453.78, 322.64)">e</text><text class="cls-45" transform="translate(462.97 335.29) rotate(54)"> </text><text class="cls-45" transform="matrix(0.59, 0.81, -0.81, 0.59, 466.86, 340.64)">o</text><text class="cls-45" transform="matrix(0.59, 0.81, -0.81, 0.59, 476.79, 354.3)">v</text><text class="cls-45" transform="matrix(0.59, 0.81, -0.81, 0.59, 485.42, 366.19)">e</text><text class="cls-45" transform="matrix(0.59, 0.81, -0.81, 0.59, 494.61, 378.83)">r</text><text class="cls-45" transform="translate(500.6 387.08) rotate(54)"> </text><text class="cls-45" transform="matrix(0.59, 0.81, -0.81, 0.59, 504.48, 392.42)">j</text><text class="cls-45" transform="translate(508.94 398.56) rotate(54)">e</text><text class="cls-45" transform="translate(518.13 411.2) rotate(54)"> </text><text class="cls-45" transform="matrix(0.59, 0.81, -0.81, 0.59, 522.01, 416.55)">e</text><text class="cls-45" transform="translate(531.19 429.18) rotate(54)">i</text><text class="cls-45" transform="matrix(0.59, 0.81, -0.81, 0.59, 535.48, 435.09)">g</text><text class="cls-45" transform="matrix(0.59, 0.81, -0.81, 0.59, 545.71, 449.17)">e</text><text class="cls-45" transform="translate(554.91 461.83) rotate(54)">n</text><text class="cls-45" transform="matrix(0.59, 0.81, -0.81, 0.59, 565.07, 475.82)"> </text><text class="cls-45" transform="translate(568.95 481.16) rotate(54)">l</text><text class="cls-45" transform="matrix(0.59, 0.81, -0.81, 0.59, 573.29, 487.13)">e</text><text class="cls-45" transform="matrix(0.59, 0.81, -0.81, 0.59, 582.47, 499.76)">r</text><text class="cls-45" transform="matrix(0.59, 0.81, -0.81, 0.59, 588.27, 507.75)">e</text><text class="cls-45" transform="matrix(0.59, 0.81, -0.81, 0.59, 597.46, 520.4)">n</text></g><g id="LINE-19" data-name="LINE"><text class="cls-45" transform="translate(495.02 77.93) rotate(66)">	</text><text class="cls-45" transform="matrix(0.41, 0.91, -0.91, 0.41, 509.66, 110.81)">	</text><text class="cls-45" transform="matrix(0.41, 0.91, -0.91, 0.41, 524.31, 143.7)"> </text><text class="cls-45" transform="matrix(0.41, 0.91, -0.91, 0.41, 526.99, 149.74)"> </text><text class="cls-45" transform="matrix(0.41, 0.91, -0.91, 0.41, 529.68, 155.77)"> </text><text class="cls-45" transform="translate(531.91 160.79) rotate(66)">V</text><text class="cls-45" transform="matrix(0.41, 0.91, -0.91, 0.41, 538.58, 175.76)">e</text><text class="cls-45" transform="translate(544.93 190.02) rotate(66)">r</text><text class="cls-45" transform="translate(549.12 199.44) rotate(66)">b</text><text class="cls-45" transform="translate(556.34 215.65) rotate(66)">r</text><text class="cls-45" transform="translate(560.36 224.68) rotate(66)">e</text><text class="cls-45" transform="translate(566.71 238.95) rotate(66)">d</text><text class="cls-45" transform="translate(573.87 255.03) rotate(66)">e</text><text class="cls-45" transform="matrix(0.41, 0.91, -0.91, 0.41, 580.22, 269.29)">n</text><text class="cls-45" transform="translate(587.26 285.09) rotate(66)"> </text><text class="cls-45" transform="translate(589.95 291.15) rotate(66)">b</text><text class="cls-45" transform="translate(597.16 307.34) rotate(66)">i</text><text class="cls-45" transform="translate(600.13 314.01) rotate(66)">n</text><text class="cls-45" transform="translate(607.17 329.81) rotate(66)">n</text><text class="cls-45" transform="translate(614.21 345.62) rotate(66)">e</text><text class="cls-45" transform="translate(620.56 359.9) rotate(66)">n</text><text class="cls-45" transform="matrix(0.41, 0.91, -0.91, 0.41, 627.6, 375.71)"> </text><text class="cls-45" transform="translate(630.29 381.75) rotate(66)">d</text><text class="cls-45" transform="translate(637.45 397.83) rotate(66)">e</text><text class="cls-45" transform="translate(643.8 412.1) rotate(66)"> </text><text class="cls-45" transform="matrix(0.41, 0.91, -0.91, 0.41, 646.49, 418.13)">k</text><text class="cls-45" transform="translate(652.66 432) rotate(66)">a</text><text class="cls-45" transform="translate(658.78 445.73) rotate(66)">d</text><text class="cls-45" transform="translate(665.93 461.79) rotate(66)">e</text><text class="cls-45" transform="translate(672.28 476.05) rotate(66)">r</text><text class="cls-45" transform="translate(676.43 485.38) rotate(66)">s</text></g><g id="LINE-20" data-name="LINE"><text class="cls-43" transform="translate(662.48 21.1) rotate(78)">	</text><text class="cls-43" transform="translate(669.96 56.31) rotate(78)"> </text><text class="cls-43" transform="matrix(0.21, 0.98, -0.98, 0.21, 671.46, 63.37)"> <tspan x="7.21" y="0"> </tspan></text><text class="cls-43" transform="translate(674.46 77.48) rotate(78)"> </text><text class="cls-43" transform="translate(675.71 83.34) rotate(78)">V</text><text class="cls-43" transform="translate(679.42 100.79) rotate(78)">e</text><text class="cls-43" transform="translate(682.97 117.48) rotate(78)">r</text><text class="cls-43" transform="matrix(0.21, 0.98, -0.98, 0.21, 685.2, 128.02)">d</text><text class="cls-43" transform="translate(689.19 146.79) rotate(78)">i</text><text class="cls-43" transform="translate(690.85 154.58) rotate(78)">e</text><text class="cls-43" transform="translate(694.39 171.24) rotate(78)">p</text><text class="cls-43" transform="translate(698.42 190.17) rotate(78)">e</text><text class="cls-43" transform="translate(701.96 206.83) rotate(78)">n</text><text class="cls-43" transform="translate(705.88 225.3) rotate(78)"> </text><text class="cls-43" transform="matrix(0.21, 0.98, -0.98, 0.21, 707.38, 232.35)">b</text><text class="cls-43" transform="translate(711.41 251.29) rotate(78)">i</text><text class="cls-43" transform="matrix(0.21, 0.98, -0.98, 0.21, 713.06, 259.08)">n</text><text class="cls-43" transform="matrix(0.21, 0.98, -0.98, 0.21, 716.99, 277.55)">n</text><text class="cls-43" transform="translate(720.91 296) rotate(78)">e</text><text class="cls-43" transform="translate(724.45 312.66) rotate(78)">n</text><text class="cls-43" transform="matrix(0.21, 0.98, -0.98, 0.21, 728.38, 331.15)"> <tspan x="7.22" y="0">d</tspan></text><text class="cls-43" transform="translate(733.87 356.96) rotate(78)">e</text><text class="cls-43" transform="translate(737.41 373.64) rotate(78)"> </text><text class="cls-43" transform="translate(738.91 380.69) rotate(78)">k</text><text class="cls-43" transform="translate(742.35 396.88) rotate(78)">a</text><text class="cls-43" transform="translate(745.76 412.91) rotate(78)">d</text><text class="cls-43" transform="translate(749.75 431.68) rotate(78)">e</text><text class="cls-43" transform="matrix(0.21, 0.98, -0.98, 0.21, 753.3, 448.37)">r</text><text class="cls-43" transform="translate(755.61 459.23) rotate(78)">s</text></g><g id="LINE-21" data-name="LINE"><text class="cls-43" transform="translate(861.95 462.92) rotate(-90)">P<tspan x="17.25" y="0">o</tspan><tspan x="35.9" y="0">r</tspan><tspan x="47.86" y="0">t</tspan><tspan x="59.11" y="0">f</tspan><tspan x="68.61" y="0">o</tspan><tspan x="87.29" y="0">l</tspan><tspan x="95.32" y="0">i</tspan><tspan x="103.28" y="0">o</tspan><tspan x="121.93" y="0"> </tspan><tspan x="129.15" y="0">o</tspan><tspan x="147.82" y="0">p</tspan><tspan x="167.19" y="0">b</tspan><tspan x="186.54" y="0">o</tspan><tspan x="205.22" y="0">u</tspan><tspan x="223.94" y="0">w</tspan><tspan x="248.65" y="0">e</tspan><tspan x="265.69" y="0">n</tspan></text></g><g id="LINE-22" data-name="LINE"><text class="cls-43" transform="matrix(0.21, -0.98, 0.98, 0.21, 943.17, 469.57)">C</text><text class="cls-43" transform="translate(947.2 450.65) rotate(-78)">o</text><text class="cls-43" transform="translate(951.08 432.37) rotate(-78)">m</text><text class="cls-43" transform="translate(956.98 404.62) rotate(-78)">b</text><text class="cls-43" transform="translate(961.01 385.68) rotate(-78)">i</text><text class="cls-43" transform="translate(962.66 377.92) rotate(-78)">n</text><text class="cls-43" transform="translate(966.59 359.43) rotate(-78)">e</text><text class="cls-43" transform="translate(970.13 342.77) rotate(-78)">r</text><text class="cls-43" transform="matrix(0.21, -0.98, 0.98, 0.21, 972.37, 332.23)">e</text><text class="cls-43" transform="matrix(0.21, -0.98, 0.98, 0.21, 975.91, 315.55)">n</text><text class="cls-43" transform="translate(979.84 297.08) rotate(-78)"> </text><text class="cls-43" transform="matrix(0.21, -0.98, 0.98, 0.21, 981.34, 290.02)">m</text><text class="cls-43" transform="matrix(0.21, -0.98, 0.98, 0.21, 987.23, 262.29)">e</text><text class="cls-43" transform="matrix(0.21, -0.98, 0.98, 0.21, 990.78, 245.62)">t</text><text class="cls-43" transform="translate(993.12 234.62) rotate(-78)"> </text><text class="cls-43" transform="matrix(0.21, -0.98, 0.98, 0.21, 994.62, 227.54)">N</text><text class="cls-43" transform="matrix(0.21, -0.98, 0.98, 0.21, 999.27, 205.67)">L</text><text class="cls-43" transform="translate(1002.61 189.96) rotate(-78)">,</text><text class="cls-43" transform="translate(1004.07 183.07) rotate(-78)"> </text><text class="cls-43" transform="matrix(0.21, -0.98, 0.98, 0.21, 1005.57, 176.02)">E</text><text class="cls-43" transform="matrix(0.21, -0.98, 0.98, 0.21, 1009.05, 159.65)">n</text><text class="cls-43" transform="translate(1012.98 141.19) rotate(-78)">g</text><text class="cls-43" transform="matrix(0.21, -0.98, 0.98, 0.21, 1016.82, 123.09)">.</text><text class="cls-43" transform="translate(1018.29 116.18) rotate(-78)"> </text><text class="cls-43" transform="translate(1019.79 109.15) rotate(-78)">&amp;</text><text class="cls-43" transform="translate(1024.06 89.02) rotate(-78)"> </text><text class="cls-43" transform="translate(1025.57 81.96) rotate(-78)">B</text><text class="cls-43" transform="translate(1029.4 63.91) rotate(-78)">S</text></g><g id="LINE-23" data-name="LINE"><text class="cls-43" transform="matrix(0.41, -0.91, 0.91, 0.41, 1021.52, 494.53)">C</text><text class="cls-43" transform="translate(1029.39 476.86) rotate(-66)">o</text><text class="cls-43" transform="matrix(0.41, -0.91, 0.91, 0.41, 1036.99, 459.79)">m</text><text class="cls-43" transform="translate(1048.52 433.88) rotate(-66)">b</text><text class="cls-43" transform="matrix(0.41, -0.91, 0.91, 0.41, 1056.4, 416.2)">i</text><text class="cls-43" transform="translate(1059.63 408.94) rotate(-66)">n</text><text class="cls-43" transform="translate(1067.31 391.69) rotate(-66)">e<tspan x="17.06" y="0">r</tspan></text><text class="cls-43" transform="matrix(0.41, -0.91, 0.91, 0.41, 1078.64, 366.25)">e</text><text class="cls-43" transform="translate(1085.56 350.69) rotate(-66)">n</text><text class="cls-43" transform="matrix(0.41, -0.91, 0.91, 0.41, 1093.24, 333.45)"> </text><text class="cls-43" transform="translate(1096.17 326.87) rotate(-66)">m</text><text class="cls-43" transform="translate(1107.71 300.95) rotate(-66)">e</text><text class="cls-43" transform="translate(1114.64 285.38) rotate(-66)">t</text><text class="cls-43" transform="translate(1119.22 275.09) rotate(-66)"> </text><text class="cls-43" transform="translate(1122.16 268.51) rotate(-66)">R</text><text class="cls-43" transform="translate(1129.65 251.67) rotate(-66)">e</text><text class="cls-43" transform="translate(1136.59 236.08) rotate(-66)">k</text><text class="cls-43" transform="translate(1143.07 221.53) rotate(-66)">e</text><text class="cls-43" transform="translate(1150.01 205.94) rotate(-66)">n</text><text class="cls-43" transform="translate(1157.69 188.69) rotate(-66)">e</text><text class="cls-43" transform="translate(1164.61 173.15) rotate(-66)">n</text><text class="cls-43" transform="matrix(0.41, -0.91, 0.91, 0.41, 1172.3, 155.88)">k</text></g><g id="LINE-24" data-name="LINE"><text class="cls-43" transform="translate(1086.41 545.28) rotate(-54)">V</text><text class="cls-43" transform="translate(1096.91 530.83) rotate(-54)">e</text><text class="cls-43" transform="translate(1106.92 517.04) rotate(-54)">r</text><text class="cls-43" transform="matrix(0.59, -0.81, 0.81, 0.59, 1113.55, 507.93)">b</text><text class="cls-43" transform="matrix(0.59, -0.81, 0.81, 0.59, 1124.92, 492.27)">r</text><text class="cls-43" transform="translate(1131.27 483.54) rotate(-54)">e</text><text class="cls-43" transform="matrix(0.59, -0.81, 0.81, 0.59, 1141.27, 469.76)">d</text><text class="cls-43" transform="translate(1152.56 454.23) rotate(-54)">e</text><text class="cls-43" transform="matrix(0.59, -0.81, 0.81, 0.59, 1162.57, 440.46)">n</text><text class="cls-43" transform="matrix(0.59, -0.81, 0.81, 0.59, 1173.66, 425.19)"> </text><text class="cls-43" transform="translate(1177.9 419.35) rotate(-54)">b</text><text class="cls-43" transform="translate(1189.28 403.69) rotate(-54)">u</text><text class="cls-43" transform="matrix(0.59, -0.81, 0.81, 0.59, 1200.29, 388.53)">i</text><text class="cls-43" transform="matrix(0.59, -0.81, 0.81, 0.59, 1204.97, 382.09)">t</text><text class="cls-43" transform="translate(1211.47 373.15) rotate(-54)">e</text><text class="cls-43" transform="translate(1221.48 359.36) rotate(-54)">n</text><text class="cls-43" transform="translate(1232.58 344.09) rotate(-54)"> </text><text class="cls-43" transform="matrix(0.59, -0.81, 0.81, 0.59, 1236.82, 338.25)">d</text><text class="cls-43" transform="matrix(0.59, -0.81, 0.81, 0.59, 1248.1, 322.73)">e</text><text class="cls-43" transform="translate(1258.12 308.94) rotate(-54)"> </text><text class="cls-43" transform="matrix(0.59, -0.81, 0.81, 0.59, 1262.35, 303.11)">k</text><text class="cls-43" transform="translate(1272.09 289.71) rotate(-54)">a</text><text class="cls-43" transform="translate(1281.73 276.45) rotate(-54)">d</text><text class="cls-43" transform="matrix(0.59, -0.81, 0.81, 0.59, 1293.01, 260.91)">e</text><text class="cls-43" transform="translate(1303.02 247.14) rotate(-54)">r</text><text class="cls-43" transform="translate(1309.57 238.13) rotate(-54)">s</text></g><g id="LINE-25" data-name="LINE"><text class="cls-43" transform="matrix(0.74, -0.67, 0.67, 0.74, 1149.5, 596.69)">V</text><text class="cls-43" transform="matrix(0.74, -0.67, 0.67, 0.74, 1162.78, 584.72)">e</text><text class="cls-43" transform="translate(1175.44 573.33) rotate(-42)">r</text><text class="cls-43" transform="translate(1183.46 566.11) rotate(-42)">d</text><text class="cls-43" transform="translate(1197.72 553.27) rotate(-42)">i</text><text class="cls-43" transform="translate(1203.62 547.96) rotate(-42)">e</text><text class="cls-43" transform="translate(1216.29 536.55) rotate(-42)">p</text><text class="cls-43" transform="translate(1230.66 523.61) rotate(-42)">e</text><text class="cls-43" transform="matrix(0.74, -0.67, 0.67, 0.74, 1243.33, 512.2)">n</text><text class="cls-43" transform="matrix(0.74, -0.67, 0.67, 0.74, 1257.35, 499.57)"> </text><text class="cls-43" transform="translate(1262.72 494.74) rotate(-42)">b</text><text class="cls-43" transform="matrix(0.74, -0.67, 0.67, 0.74, 1277.1, 481.79)">u</text><text class="cls-43" transform="matrix(0.74, -0.67, 0.67, 0.74, 1291.04, 469.24)">i<tspan x="7.95" y="0">t</tspan></text><text class="cls-43" transform="translate(1305.16 456.53) rotate(-42)">e</text><text class="cls-43" transform="matrix(0.74, -0.67, 0.67, 0.74, 1317.82, 445.12)">n</text><text class="cls-43" transform="translate(1331.85 432.5) rotate(-42)"> </text><text class="cls-43" transform="translate(1337.21 427.67) rotate(-42)">d</text><text class="cls-43" transform="matrix(0.74, -0.67, 0.67, 0.74, 1351.49, 414.82)">e<tspan x="17.02" y="0"> </tspan></text><text class="cls-43" transform="translate(1369.49 398.61) rotate(-42)">k</text><text class="cls-43" transform="translate(1381.81 387.51) rotate(-42)">a</text><text class="cls-43" transform="translate(1393.99 376.54) rotate(-42)">d</text><text class="cls-43" transform="matrix(0.74, -0.67, 0.67, 0.74, 1408.25, 363.7)">e</text><text class="cls-43" transform="translate(1420.92 352.29) rotate(-42)">r</text><text class="cls-43" transform="matrix(0.74, -0.67, 0.67, 0.74, 1429.18, 344.86)">s</text></g><g id="LINE-26" data-name="LINE"><text class="cls-43" transform="matrix(0.87, -0.5, 0.5, 0.87, 1193.3, 665.81)">G</text><text class="cls-43" transform="translate(1212.47 654.74) rotate(-30)">e</text><text class="cls-43" transform="matrix(0.87, -0.5, 0.5, 0.87, 1227.23, 646.22)">f</text><text class="cls-43" transform="matrix(0.87, -0.5, 0.5, 0.87, 1235.45, 641.47)">o</text><text class="cls-43" transform="matrix(0.87, -0.5, 0.5, 0.87, 1251.63, 632.13)">c</text><text class="cls-43" transform="translate(1264.83 624.51) rotate(-30)">u</text><text class="cls-43" transform="matrix(0.87, -0.5, 0.5, 0.87, 1281.05, 615.14)">s</text><text class="cls-43" transform="matrix(0.87, -0.5, 0.5, 0.87, 1292.72, 608.41)">t</text><text class="cls-43" transform="translate(1302.47 602.78) rotate(-30)"> </text><text class="cls-43" transform="translate(1308.7 599.18) rotate(-30)">m</text><text class="cls-43" transform="matrix(0.87, -0.5, 0.5, 0.87, 1333.28, 584.99)">a</text><text class="cls-43" transform="translate(1347.48 576.79) rotate(-30)">a</text><text class="cls-43" transform="matrix(0.87, -0.5, 0.5, 0.87, 1361.67, 568.59)">r</text><text class="cls-43" transform="translate(1371.31 563.03) rotate(-30)"> </text><text class="cls-43" transform="translate(1377.55 559.43) rotate(-30)">i</text><text class="cls-43" transform="translate(1384.45 555.44) rotate(-30)">n<tspan x="18.87" y="0"> </tspan></text><text class="cls-43" transform="matrix(0.87, -0.5, 0.5, 0.87, 1407.04, 542.4)">e</text><text class="cls-43" transform="matrix(0.87, -0.5, 0.5, 0.87, 1421.81, 533.88)">i</text><text class="cls-43" transform="translate(1428.68 529.91) rotate(-30)">g</text><text class="cls-43" transform="matrix(0.87, -0.5, 0.5, 0.87, 1445.16, 520.39)">e</text><text class="cls-43" transform="matrix(0.87, -0.5, 0.5, 0.87, 1459.92, 511.87)">n</text><text class="cls-43" transform="translate(1476.26 502.44) rotate(-30)"> </text><text class="cls-43" transform="translate(1482.52 498.82) rotate(-30)">r</text><text class="cls-43" transform="translate(1491.84 493.44) rotate(-30)">e</text><text class="cls-43" transform="translate(1506.6 484.92) rotate(-30)">g</text><text class="cls-43" transform="translate(1522.89 475.52) rotate(-30)">i</text><text class="cls-43" transform="translate(1529.8 471.53) rotate(-30)">e</text></g><g id="LINE-27" data-name="LINE"><text class="cls-42" transform="matrix(0.59, -0.81, 0.81, 0.59, 361.48, 1546.3)"> </text><text class="cls-42" transform="translate(366.44 1539.49) rotate(-54)"> </text><text class="cls-42" transform="matrix(0.59, -0.81, 0.81, 0.59, 371.38, 1532.68)"> </text><text class="cls-42" transform="matrix(0.59, -0.81, 0.81, 0.59, 376.31, 1525.89)"> </text><text class="cls-42" transform="matrix(0.59, -0.81, 0.81, 0.59, 381.27, 1519.07)">3</text><text class="cls-42" transform="matrix(0.59, -0.81, 0.81, 0.59, 393.23, 1502.61)">D</text><text class="cls-42" transform="translate(408.76 1481.24) rotate(-54)"> </text><text class="cls-42" transform="matrix(0.59, -0.81, 0.81, 0.59, 413.71, 1474.42)">p</text><text class="cls-42" transform="matrix(0.59, -0.81, 0.81, 0.59, 426.99, 1456.14)">r</text><text class="cls-42" transform="matrix(0.59, -0.81, 0.81, 0.59, 434.71, 1445.52)">i</text><text class="cls-42" transform="translate(440.16 1438.02) rotate(-54)">n</text><text class="cls-42" transform="matrix(0.59, -0.81, 0.81, 0.59, 453.02, 1420.32)">t</text><text class="cls-42" transform="matrix(0.59, -0.81, 0.81, 0.59, 460.6, 1409.89)">e</text><text class="cls-42" transform="translate(472.27 1393.81) rotate(-54)">r</text><text class="cls-42" transform="matrix(0.59, -0.81, 0.81, 0.59, 479.91, 1383.3)">s</text><text class="cls-42" transform="matrix(0.59, -0.81, 0.81, 0.59, 489.14, 1370.59)"> </text><text class="cls-42" transform="matrix(0.59, -0.81, 0.81, 0.59, 494.09, 1363.78)">&amp;</text><text class="cls-42" transform="translate(508.2 1344.36) rotate(-54)"> <tspan x="8.41" y="0">L</tspan></text><text class="cls-42" transform="matrix(0.59, -0.81, 0.81, 0.59, 524.16, 1322.39)">a</text><text class="cls-42" transform="translate(535.4 1306.93) rotate(-54)">s</text><text class="cls-42" transform="matrix(0.59, -0.81, 0.81, 0.59, 544.64, 1294.21)">e</text><text class="cls-42" transform="translate(556.33 1278.12) rotate(-54)">r</text><text class="cls-42" transform="matrix(0.59, -0.81, 0.81, 0.59, 563.96, 1267.62)">s</text><text class="cls-42" transform="matrix(0.59, -0.81, 0.81, 0.59, 573.2, 1254.9)">n</text><text class="cls-42" transform="matrix(0.59, -0.81, 0.81, 0.59, 586.14, 1237.09)">i</text><text class="cls-42" transform="translate(591.6 1229.57) rotate(-54)">j</text><text class="cls-42" transform="matrix(0.59, -0.81, 0.81, 0.59, 597.26, 1221.79)">d</text><text class="cls-42" transform="matrix(0.59, -0.81, 0.81, 0.59, 610.42, 1203.67)">e</text><text class="cls-42" transform="translate(622.11 1187.58) rotate(-54)">r</text></g><g id="CIRCLE-2" data-name="CIRCLE"><text class="cls-46" transform="matrix(0.59, 0.81, -0.81, 0.59, 708.17, 933.02)">O</text><text class="cls-46" transform="translate(730.15 962.21) rotate(42.47)">n</text><text class="cls-46" transform="translate(752.28 982.12) rotate(32.03)">d</text><text class="cls-46" transform="translate(777.95 997.73) rotate(22.03)">e</text><text class="cls-46" transform="matrix(0.97, 0.25, -0.25, 0.97, 802.58, 1007.22)">r</text><text class="cls-46" transform="matrix(0.99, 0.13, -0.13, 0.99, 819.73, 1011.54)">s</text><text class="cls-46" transform="translate(840.53 1014.01) rotate(0.93)">t</text><text class="cls-46" transform="translate(858.43 1014.4) rotate(-6.93)">e</text><text class="cls-46" transform="translate(885.24 1011) rotate(-16.83)">u</text><text class="cls-46" transform="translate(913.45 1002.19) rotate(-27.25)">n</text><text class="cls-46" transform="matrix(0.82, -0.57, 0.57, 0.82, 938.79, 988.42)">i</text><text class="cls-46" transform="translate(950.03 981.09) rotate(-42)">n</text><text class="cls-46" transform="translate(971.95 961) rotate(-52.37)">g</text><text class="cls-46" transform="translate(748.76 767.47) rotate(-48.25)">I</text><text class="cls-46" transform="matrix(0.76, -0.65, 0.65, 0.76, 754.92, 759.65)">n</text><text class="cls-46" transform="translate(773.29 743.92) rotate(-31.49)">z</text><text class="cls-46" transform="translate(788.38 734.28) rotate(-22.89)">e</text><text class="cls-46" transform="matrix(0.97, -0.26, 0.26, 0.97, 808.65, 725.86)">t</text><text class="cls-46" transform="matrix(0.99, -0.15, 0.15, 0.99, 822.33, 722.09)">t</text><text class="cls-46" transform="translate(835.66 719.59) rotate(-1.18)">e</text><text class="cls-46" transform="translate(857.09 718.79) rotate(8.61)">n</text><text class="cls-46" transform="matrix(0.96, 0.27, -0.27, 0.96, 881.45, 722.88)"> </text><text class="cls-46" transform="translate(888.06 724.04) rotate(22.42)">V</text><text class="cls-46" transform="matrix(0.85, 0.53, -0.53, 0.85, 909.09, 732.35)">o</text><text class="cls-46" transform="matrix(0.74, 0.67, -0.67, 0.74, 929.22, 744.72)">o</text><text class="cls-46" transform="matrix(0.63, 0.77, -0.77, 0.63, 946.91, 761.2)">r</text></g><g id="LINE-28" data-name="LINE"><text class="cls-44" transform="translate(1225.59 985.43) rotate(18)">W</text><text class="cls-44" transform="translate(1254.1 994.69) rotate(18)">e</text><text class="cls-44" transform="translate(1271.64 1000.39) rotate(18)">r</text><text class="cls-44" transform="translate(1283.25 1004.16) rotate(18)">k</text><text class="cls-44" transform="translate(1300.27 1009.69) rotate(18)">r</text><text class="cls-44" transform="translate(1311.75 1013.42) rotate(18)">u</text><text class="cls-44" transform="matrix(0.95, 0.31, -0.31, 0.95, 1331.05, 1019.69)">i</text><text class="cls-44" transform="translate(1339.24 1022.35) rotate(18)">m</text><text class="cls-44" transform="translate(1368.35 1031.81) rotate(18)">t</text><text class="cls-44" transform="matrix(0.95, 0.31, -0.31, 0.95, 1379.72, 1035.5)">e</text><text class="cls-44" transform="translate(1397.29 1041.22) rotate(18)">s</text></g><g id="LINE-29" data-name="LINE"><text class="cls-44" transform="translate(1244.32 904.37) rotate(6)">D</text><text class="cls-44" transform="matrix(0.99, 0.1, -0.1, 0.99, 1268.87, 906.95)">o</text><text class="cls-44" transform="translate(1289 909.07) rotate(6)">m</text><text class="cls-44" transform="translate(1319.58 912.28) rotate(6)">e</text><text class="cls-44" transform="translate(1337.93 914.21) rotate(6)">i</text><text class="cls-44" transform="matrix(0.99, 0.1, -0.1, 0.99, 1346.49, 915.11)">n</text><text class="cls-44" transform="matrix(0.99, 0.1, -0.1, 0.99, 1366.84, 917.25)"> </text><text class="cls-44" transform="translate(1374.62 918.07) rotate(6)">e</text><text class="cls-44" transform="translate(1392.86 919.98) rotate(6)">x</text><text class="cls-44" transform="translate(1409.82 921.77) rotate(6)">p</text><text class="cls-44" transform="translate(1430.68 923.96) rotate(6)">e</text><text class="cls-44" transform="translate(1449.03 925.89) rotate(6)">r</text><text class="cls-44" transform="translate(1461.91 927.24) rotate(6)">t</text><text class="cls-44" transform="matrix(0.99, 0.1, -0.1, 0.99, 1474.04, 928.52)">s</text></g><g id="LINE-30" data-name="LINE"><text class="cls-43" transform="translate(1238.09 821.28) rotate(-6)">W</text><text class="cls-43" transform="matrix(0.99, -0.1, 0.1, 0.99, 1265.58, 818.39)">e</text><text class="cls-43" transform="translate(1282.53 816.61) rotate(-6)">r</text><text class="cls-43" transform="matrix(0.99, -0.1, 0.1, 0.99, 1293.73, 815.43)">k</text><text class="cls-43" transform="translate(1309.59 813.76) rotate(-6)">e</text><text class="cls-43" transform="translate(1326.54 811.98) rotate(-6)">n</text><text class="cls-43" transform="translate(1345.32 810.01) rotate(-6)"> </text><text class="cls-43" transform="matrix(0.99, -0.1, 0.1, 0.99, 1352.49, 809.25)">a</text><text class="cls-43" transform="translate(1368.81 807.54) rotate(-6)">a</text><text class="cls-43" transform="translate(1385.11 805.83) rotate(-6)">n</text><text class="cls-43" transform="matrix(0.99, -0.1, 0.1, 0.99, 1403.89, 803.85)"> </text><text class="cls-43" transform="translate(1411.04 803.1) rotate(-6)">w</text><text class="cls-43" transform="translate(1435.81 800.5) rotate(-6)">a</text><text class="cls-43" transform="translate(1451.99 798.8) rotate(-6)">t</text><text class="cls-43" transform="matrix(0.99, -0.1, 0.1, 0.99, 1463.18, 797.62)"> </text><text class="cls-43" transform="matrix(0.99, -0.1, 0.1, 0.99, 1470.36, 796.87)">e</text><text class="cls-43" transform="matrix(0.99, -0.1, 0.1, 0.99, 1487.28, 795.09)">r</text><text class="cls-43" transform="translate(1498.36 793.92) rotate(-6)"> </text><text class="cls-43" transform="translate(1505.54 793.17) rotate(-6)">t</text><text class="cls-43" transform="matrix(0.99, -0.1, 0.1, 0.99, 1516.53, 792.01)">o</text><text class="cls-43" transform="matrix(0.99, -0.1, 0.1, 0.99, 1535.1, 790.06)">e</text><text class="cls-43" transform="matrix(0.99, -0.1, 0.1, 0.99, 1552.06, 788.28)"> </text><text class="cls-43" transform="translate(1559.22 787.53) rotate(-6)">d</text><text class="cls-43" transform="translate(1578.29 785.52) rotate(-6)">o</text><text class="cls-43" transform="matrix(0.99, -0.1, 0.1, 0.99, 1596.86, 783.57)">e</text><text class="cls-43" transform="matrix(0.99, -0.1, 0.1, 0.99, 1613.81, 781.79)">t</text><text class="cls-43" transform="translate(1625.03 780.61) rotate(-6)">!</text></g><g id="LINE-31" data-name="LINE"><text class="cls-43" transform="matrix(0.95, -0.31, 0.31, 0.95, 1223.08, 741.48)">G</text><text class="cls-43" transform="translate(1244.15 734.64) rotate(-18)">e</text><text class="cls-43" transform="translate(1260.36 729.37) rotate(-18)">p</text><text class="cls-43" transform="matrix(0.95, -0.31, 0.31, 0.95, 1278.76, 723.39)">a</text><text class="cls-43" transform="translate(1294.36 718.32) rotate(-18)">s</text><text class="cls-43" transform="matrix(0.95, -0.31, 0.31, 0.95, 1307.18, 714.16)">s</text><text class="cls-43" transform="translate(1319.98 710) rotate(-18)">i</text><text class="cls-43" transform="translate(1327.55 707.54) rotate(-18)">o</text><text class="cls-43" transform="translate(1345.31 701.77) rotate(-18)">n</text><text class="cls-43" transform="translate(1363.26 695.93) rotate(-18)">e</text><text class="cls-43" transform="translate(1379.47 690.67) rotate(-18)">e</text><text class="cls-43" transform="matrix(0.95, -0.31, 0.31, 0.95, 1395.68, 685.4)">r</text><text class="cls-43" transform="translate(1405.92 682.07) rotate(-18)">d</text><text class="cls-43" transform="translate(1424.18 676.14) rotate(-18)"> </text><text class="cls-43" transform="matrix(0.95, -0.31, 0.31, 0.95, 1431.03, 673.92)">l</text><text class="cls-43" transform="translate(1438.66 671.43) rotate(-18)">e</text><text class="cls-43" transform="translate(1454.88 666.17) rotate(-18)">r</text><text class="cls-43" transform="translate(1465.12 662.84) rotate(-18)">e</text><text class="cls-43" transform="translate(1481.34 657.57) rotate(-18)">n</text></g><g id="CIRCLE-3" data-name="CIRCLE"><text class="cls-43" transform="matrix(0.02, 1, -1, 0.02, 623.54, 850.68)"> </text><text class="cls-43" transform="translate(623.67 858.26) rotate(87.17)"> </text><text class="cls-43" transform="translate(624.05 865.85) rotate(85.27)"> </text><text class="cls-43" transform="matrix(0.12, 0.99, -0.99, 0.12, 624.69, 873.42)"> </text><text class="cls-43" transform="translate(625.57 880.96) rotate(81.44)"> </text><text class="cls-43" transform="matrix(0.18, 0.98, -0.98, 0.18, 626.71, 888.47)"> </text><text class="cls-43" transform="matrix(0.21, 0.98, -0.98, 0.21, 628.09, 895.93)"> </text><text class="cls-43" transform="matrix(0.27, 0.96, -0.96, 0.27, 629.67, 903.64)">F</text><text class="cls-43" transform="matrix(0.33, 0.95, -0.95, 0.33, 634.15, 919.39)">r</text><text class="cls-43" transform="matrix(0.37, 0.93, -0.93, 0.37, 638.04, 930.5)">i</text><text class="cls-43" transform="matrix(0.42, 0.91, -0.91, 0.42, 641.13, 938.59)">e</text><text class="cls-43" transform="translate(648.76 954.73) rotate(60.92)">s</text><text class="cls-43" transform="translate(655.65 966.94) rotate(58.07)">l</text><text class="cls-43" transform="matrix(0.58, 0.82, -0.82, 0.58, 660.16, 974.38)">a</text><text class="cls-43" transform="matrix(0.64, 0.77, -0.77, 0.64, 670.14, 988.56)">n</text><text class="cls-43" transform="matrix(0.71, 0.71, -0.71, 0.71, 682.92, 1003.8)">d</text><text class="cls-43" transform="translate(697.08 1017.74) rotate(41.64)"> </text><text class="cls-43" transform="matrix(0.79, 0.62, -0.62, 0.79, 702.91, 1023.15)">C</text><text class="cls-43" transform="matrix(0.84, 0.55, -0.55, 0.84, 718.97, 1035.67)">o</text><text class="cls-43" transform="matrix(0.87, 0.49, -0.49, 0.87, 735.3, 1046.08)">l</text><text class="cls-43" transform="matrix(0.89, 0.46, -0.46, 0.89, 742.68, 1050.25)">l</text><text class="cls-43" transform="translate(750.36 1054.36) rotate(24.04)">e</text><text class="cls-43" transform="translate(766.8 1061.69) rotate(19.22)">g</text><text class="cls-43" transform="translate(785.7 1068.19) rotate(14.38)">e</text><text class="cls-43" transform="translate(802.88 1072.43) rotate(11.14)"> </text><text class="cls-43" transform="translate(810.34 1073.9) rotate(9.21)"> </text><text class="cls-43" transform="matrix(0.99, 0.13, -0.13, 0.99, 817.85, 1075.11)"> </text><text class="cls-43" transform="matrix(1, 0.09, -0.09, 1, 825.37, 1076.06)"> </text><text class="cls-43" transform="matrix(1, 0.06, -0.06, 1, 832.94, 1076.77)"> </text><text class="cls-43" transform="translate(840.51 1077.22) rotate(1.58)"> </text><text class="cls-43" transform="translate(848.22 1077.46) rotate(-0.93)"> </text><text class="cls-43" transform="translate(855.7 1077.38) rotate(-2.19)"> </text><text class="cls-43" transform="translate(863.26 1077.08) rotate(-4.08)"> </text><text class="cls-43" transform="matrix(0.99, -0.1, 0.1, 0.99, 870.85, 1076.54)"> </text><text class="cls-43" transform="translate(878.4 1075.74) rotate(-7.9)"> </text><text class="cls-43" transform="translate(885.91 1074.69) rotate(-9.82)"> </text><text class="cls-43" transform="matrix(0.98, -0.2, 0.2, 0.98, 893.42, 1073.38)"> </text><text class="cls-43" transform="matrix(0.97, -0.24, 0.24, 0.97, 900.83, 1071.83)"> </text><text class="cls-43" transform="translate(908.23 1070.03) rotate(-15.62)"> </text><text class="cls-43" transform="translate(915.82 1068.02) rotate(-18.82)">E</text><text class="cls-43" transform="translate(932.48 1062.29) rotate(-23.17)">x</text><text class="cls-43" transform="translate(948.02 1055.52) rotate(-26.9)">t</text><text class="cls-43" transform="translate(958.56 1050.25) rotate(-30.61)">e</text><text class="cls-43" transform="translate(973.8 1041.09) rotate(-34.35)">r</text><text class="cls-43" transform="matrix(0.78, -0.62, 0.62, 0.78, 983.83, 1034.36)">n</text><text class="cls-43" transform="translate(999.35 1021.98) rotate(-43.12)">e</text><text class="cls-43" transform="translate(1012.14 1009.78) rotate(-46.32)"> </text><text class="cls-43" transform="translate(1017.74 1004.16) rotate(-49.84)">p</text><text class="cls-43" transform="matrix(0.58, -0.81, 0.81, 0.58, 1030.76, 988.57)">a</text><text class="cls-43" transform="translate(1040.59 974.57) rotate(-58.22)">r</text><text class="cls-43" transform="translate(1047.05 964.35) rotate(-62.25)">n</text><text class="cls-43" transform="translate(1056.01 946.99) rotate(-66.24)">t</text><text class="cls-43" transform="matrix(0.34, -0.94, 0.94, 0.34, 1060.83, 936.21)">e</text><text class="cls-43" transform="translate(1066.81 919.46) rotate(-73.74)">r</text><text class="cls-43" transform="translate(1070.13 908.12) rotate(-77.05)">s</text><text class="cls-43" transform="translate(646.61 842.73) rotate(-86.86)"> </text><text class="cls-43" transform="translate(646.98 835.89) rotate(-84.95)"> </text><text class="cls-43" transform="matrix(0.14, -0.99, 0.99, 0.14, 647.24, 830.53)">V</text><text class="cls-43" transform="translate(649.63 813.72) rotate(-77.38)">a</text><text class="cls-43" transform="translate(653 798.54) rotate(-73.04)">k</text><text class="cls-43" transform="matrix(0.37, -0.93, 0.93, 0.37, 657.3, 784.14)">o</text><text class="cls-43" transform="matrix(0.45, -0.89, 0.89, 0.45, 663.75, 767.69)">p</text><text class="cls-43" transform="matrix(0.5, -0.86, 0.86, 0.5, 672.24, 751.12)">l</text><text class="cls-43" transform="matrix(0.55, -0.83, 0.83, 0.55, 675.84, 744.68)">e</text><text class="cls-43" transform="translate(685.01 731.1) rotate(-53.03)">i</text><text class="cls-43" transform="translate(689.21 725.2) rotate(-49.44)">d</text><text class="cls-43" transform="matrix(0.7, -0.72, 0.72, 0.7, 701.34, 711.27)">i</text><text class="cls-43" transform="translate(706.26 705.92) rotate(-42.3)">n</text><text class="cls-43" transform="matrix(0.8, -0.61, 0.61, 0.8, 719.46, 693.85)">g</text><text class="cls-43" transform="translate(734.12 682.88) rotate(-33.82)"> </text><text class="cls-43" transform="translate(739.79 679.07) rotate(-31.9)"> </text><text class="cls-43" transform="translate(745.6 675.45) rotate(-29.98)"> </text><text class="cls-43" transform="matrix(0.88, -0.47, 0.47, 0.88, 751.51, 672.04)"> </text><text class="cls-43" transform="translate(757.53 668.82) rotate(-26.13)"> </text><text class="cls-43" transform="translate(763.64 665.81) rotate(-24.21)"> </text><text class="cls-43" transform="translate(769.87 663.01) rotate(-22.28)"> </text><text class="cls-43" transform="matrix(0.95, -0.32, 0.32, 0.95, 775.86, 660.35)">K</text><text class="cls-43" transform="translate(792.4 654.7) rotate(-14.09)">e</text><text class="cls-43" transform="matrix(0.99, -0.16, 0.16, 0.99, 807.99, 650.71)">u</text><text class="cls-43" transform="matrix(1, -0.09, 0.09, 1, 825.63, 647.86)">z</text><text class="cls-43" transform="translate(839.11 646.65) rotate(-0.93)">e</text><text class="cls-43" transform="translate(855.19 646.33) rotate(3.95)">d</text><text class="cls-43" transform="translate(873.39 647.59) rotate(8.76)">e</text><text class="cls-43" transform="matrix(0.98, 0.21, -0.21, 0.98, 889.55, 650.19)">l</text><text class="cls-43" transform="translate(896.77 651.58) rotate(15.45)">e</text><text class="cls-43" transform="matrix(0.94, 0.35, -0.35, 0.94, 912.31, 655.8)">n</text><text class="cls-43" transform="translate(929.3 662.24) rotate(23.76)"> </text><text class="cls-43" transform="translate(935.55 664.98) rotate(25.69)"> </text><text class="cls-43" transform="matrix(0.89, 0.46, -0.46, 0.89, 941.7, 667.93)"> </text><text class="cls-43" transform="translate(947.76 671.1) rotate(29.54)"> </text><text class="cls-43" transform="translate(953.71 674.46) rotate(31.46)"> </text><text class="cls-43" transform="matrix(0.84, 0.55, -0.55, 0.84, 959.55, 678.02)"> </text><text class="cls-43" transform="translate(965.24 681.77) rotate(35.28)"> </text><text class="cls-43" transform="matrix(0.8, 0.6, -0.6, 0.8, 970.83, 685.71)"> </text><text class="cls-43" transform="translate(976.26 689.83) rotate(39.1)"> </text><text class="cls-43" transform="matrix(0.75, 0.66, -0.66, 0.75, 981.57, 694.13)"> </text><text class="cls-43" transform="translate(986.64 698.35) rotate(44.18)">E</text><text class="cls-43" transform="translate(998.03 709.4) rotate(48.47)">x</text><text class="cls-43" transform="matrix(0.61, 0.79, -0.79, 0.61, 1007.65, 720.21)">c</text><text class="cls-43" transform="matrix(0.55, 0.84, -0.84, 0.55, 1016.35, 731.4)">e</text><text class="cls-43" transform="translate(1025.26 745.15) rotate(59.99)">l</text><text class="cls-43" transform="translate(1029.07 751.72) rotate(62.13)">l</text><text class="cls-43" transform="translate(1032.64 758.16) rotate(65.47)">e</text><text class="cls-43" transform="matrix(0.34, 0.94, -0.94, 0.34, 1039.4, 772.78)">n</text><text class="cls-43" transform="matrix(0.27, 0.96, -0.96, 0.27, 1045.36, 789.71)">t</text><text class="cls-43" transform="translate(1048.24 800.05) rotate(76.86)">i</text><text class="cls-43" transform="translate(1050.05 807.13) rotate(80.2)">e</text><text class="cls-43" transform="matrix(0.11, 0.99, -0.99, 0.11, 1052.72, 823.31)"> </text></g><text class="cls-47" transform="translate(805.5 814.66)">MBO<tspan x="-56.57" y="51.02">Challenges</tspan><tspan x="21.68" y="102.05">.nl</tspan></text><text class="cls-42" transform="translate(876.3 1215.76) rotate(-5.54)">P</text><text class="cls-42" transform="matrix(0.99, -0.15, 0.15, 0.99, 897.02, 1213.73)">a</text><text class="cls-42" transform="translate(916.52 1210.67) rotate(-11.28)">r</text><text class="cls-42" transform="translate(930.72 1207.81) rotate(-13.58)">t</text><text class="cls-42" transform="matrix(0.96, -0.28, 0.28, 0.96, 944.17, 1204.66)">n</text><text class="cls-42" transform="translate(966.04 1198.14) rotate(-19.91)">e</text><text class="cls-42" transform="translate(985.29 1191.06) rotate(-22.6)">r</text><text class="cls-42" transform="matrix(0.91, -0.42, 0.42, 0.91, 997.79, 1185.88)">s</text><text class="cls-42" transform="matrix(0.89, -0.45, 0.45, 0.89, 1012.44, 1178.99)"> </text><text class="cls-42" transform="matrix(0.88, -0.47, 0.47, 0.88, 1020.22, 1175.03)"> </text><text class="cls-42" transform="matrix(0.87, -0.5, 0.5, 0.87, 1027.89, 1170.89)"> </text><text class="cls-42" transform="translate(1035.49 1166.56) rotate(-31.05)"> </text><text class="cls-42" transform="matrix(0.84, -0.54, 0.54, 0.84, 1042.97, 1162.05)"> </text><text class="cls-42" transform="translate(1050.33 1157.37) rotate(-33.79)"> </text><text class="cls-42" transform="translate(1057.6 1152.5) rotate(-35.16)"> </text><text class="cls-42" transform="translate(1064.73 1147.47) rotate(-36.53)"> </text><text class="cls-42" transform="matrix(0.79, -0.61, 0.61, 0.79, 1071.73, 1142.28)"> </text><text class="cls-42" transform="matrix(0.77, -0.63, 0.63, 0.77, 1078.62, 1136.92)"> </text><text class="cls-42" transform="translate(1085.4 1131.37) rotate(-40.62)"> </text><text class="cls-42" transform="matrix(0.73, -0.68, 0.68, 0.73, 1092.23, 1125.64)">F</text><text class="cls-42" transform="matrix(0.69, -0.73, 0.73, 0.69, 1107.11, 1111.95)">D</text><text class="cls-42" transform="translate(1125.77 1092.03) rotate(-50.28)">F</text><text class="cls-42" transform="translate(1138.35 1076.7) rotate(-52.53)"> </text><text class="cls-42" transform="translate(1143.66 1069.76) rotate(-53.9)"> </text><text class="cls-42" transform="matrix(0.57, -0.82, 0.82, 0.57, 1148.81, 1062.69)"> </text><text class="cls-42" transform="matrix(0.55, -0.84, 0.84, 0.55, 1153.78, 1055.53)"> </text><text class="cls-42" transform="matrix(0.53, -0.85, 0.85, 0.53, 1158.59, 1048.21)"> </text><text class="cls-42" transform="matrix(0.51, -0.86, 0.86, 0.51, 1163.22, 1040.8)"> </text><text class="cls-42" transform="translate(1167.65 1033.3) rotate(-60.74)"> </text><text class="cls-42" transform="matrix(0.47, -0.88, 0.88, 0.47, 1171.93, 1025.66)"> </text><text class="cls-42" transform="matrix(0.43, -0.9, 0.9, 0.43, 1176.23, 1017.79)">P</text><text class="cls-42" transform="translate(1185.17 998.98) rotate(-67.67)">a</text><text class="cls-42" transform="matrix(0.34, -0.94, 0.94, 0.34, 1192.58, 980.7)">r</text><text class="cls-42" transform="matrix(0.3, -0.95, 0.95, 0.3, 1197.44, 967.06)">t</text><text class="cls-42" transform="matrix(0.25, -0.97, 0.97, 0.25, 1201.66, 953.91)">n</text><text class="cls-42" transform="translate(1207.32 931.8) rotate(-78.92)">e</text><text class="cls-42" transform="matrix(0.15, -0.99, 0.99, 0.15, 1211.17, 911.65)">r</text><text class="cls-42" transform="translate(1213.16 898.27) rotate(-83.95)">s</text></g></svg>